<mxfile host="Electron" modified="2025-10-16T08:17:10.268Z" agent="Mozilla/5.0 (Windows NT 10.0; Win64; x64) AppleWebKit/537.36 (KHTML, like Gecko) draw.io/22.0.3 Chrome/114.0.5735.289 Electron/25.8.4 Safari/537.36" etag="2pV-kh5oEvEYYs7TME6r" version="22.0.3" type="device">
  <diagram name="ページ1" id="bvvWgh9vU2uLJQzP8Uxj">
    <mxGraphModel dx="1877" dy="621" grid="1" gridSize="10" guides="1" tooltips="1" connect="1" arrows="1" fold="1" page="1" pageScale="1" pageWidth="827" pageHeight="1169" math="0" shadow="0">
      <root>
        <mxCell id="0" />
        <mxCell id="1" parent="0" />
        <mxCell id="BuxqmLbNOe8SiWox82qU-5" value="" style="rounded=0;whiteSpace=wrap;html=1;" vertex="1" parent="1">
          <mxGeometry x="27" y="734" width="229" height="120" as="geometry" />
        </mxCell>
        <mxCell id="7sl2i-Y2lmcS3EekDP7u-4" value="" style="rounded=0;whiteSpace=wrap;html=1;" parent="1" vertex="1">
          <mxGeometry x="150" y="223" width="661" height="447" as="geometry" />
        </mxCell>
        <mxCell id="7sl2i-Y2lmcS3EekDP7u-6" value="" style="rounded=0;whiteSpace=wrap;html=1;" parent="1" vertex="1">
          <mxGeometry x="170" y="320" width="411" height="340" as="geometry" />
        </mxCell>
        <mxCell id="7sl2i-Y2lmcS3EekDP7u-1" value="" style="sketch=0;points=[[0,0,0],[0.25,0,0],[0.5,0,0],[0.75,0,0],[1,0,0],[0,1,0],[0.25,1,0],[0.5,1,0],[0.75,1,0],[1,1,0],[0,0.25,0],[0,0.5,0],[0,0.75,0],[1,0.25,0],[1,0.5,0],[1,0.75,0]];outlineConnect=0;fontColor=#232F3E;fillColor=#7AA116;strokeColor=#ffffff;dashed=0;verticalLabelPosition=bottom;verticalAlign=top;align=center;html=1;fontSize=12;fontStyle=0;aspect=fixed;shape=mxgraph.aws4.resourceIcon;resIcon=mxgraph.aws4.s3;" parent="1" vertex="1">
          <mxGeometry x="31" y="384" width="78" height="78" as="geometry" />
        </mxCell>
        <mxCell id="7sl2i-Y2lmcS3EekDP7u-3" value="" style="shape=image;aspect=fixed;image=data:image/svg+xml,PHN2ZyB3aWR0aD0iMzE3IiBoZWlnaHQ9IjEzMyIgdmlld0JveD0iMCAwIDMxNyAxMzMiIGZpbGw9Im5vbmUiIHhtbG5zPSJodHRwOi8vd3d3LnczLm9yZy8yMDAwL3N2ZyI+CjxyZWN0IHdpZHRoPSIzMTciIGhlaWdodD0iMTMzIiBmaWxsPSJ3aGl0ZSIvPgo8cGF0aCBmaWxsLXJ1bGU9ImV2ZW5vZGQiIGNsaXAtcnVsZT0iZXZlbm9kZCIgZD0iTTE4OS4zOTEgNTUuNjEzMUwxODkuMzg0IDU1LjYwODRDMTg5LjM4NCA1NS42MDg0IDE4OS4zOCA1NS42MDU4IDE4OS4zNzQgNTUuNjA1OEMxODkuMTk3IDU1LjUyOCAxODkuMDAzIDU1LjQ4NzggMTg4LjgxNyA1NS40ODc4QzE4OC41MTQgNTUuNDkgMTg4LjIyNCA1NS41ODAxIDE4Ny45NzEgNTUuNzM4M0MxODcuNzEzIDU1LjkwMTYgMTg3LjQ5NSA1Ni4xNDAxIDE4Ny4zNyA1Ni40MzhWNTYuNDQ1M0wxODEuNDY1IDcyLjYwNDRMMTc2LjkxNSA2MS43NzM1TDE3Ni45MDggNjEuNzY4NEMxNzYuNzggNjEuNDY1OCAxNzYuNTUxIDYxLjIzMTkgMTc2LjI5MSA2MS4wNjkxQzE3Ni4wMjggNjAuOTA1OCAxNzUuNzI1IDYwLjgxNiAxNzUuNDA2IDYwLjgxNkMxNzUuMDk3IDYwLjgxNiAxNzQuODA4IDYwLjkxMjYgMTc0LjU1MyA2MS4wNzEyQzE3NC4zMDIgNjEuMjM0MSAxNzQuMDc2IDYxLjQ2NTggMTczLjk0OCA2MS43Njg0TDE3My45NDUgNjEuNzczNUwxNjkuMzg2IDcyLjYxMTZMMTYzLjQ1IDU2LjQ1OTRIMTYzLjQ0NUMxNjMuMzQyIDU2LjE0NzQgMTYzLjEzMSA1NS45MDM3IDE2Mi44OCA1NS43NDNDMTYyLjYyNSA1NS41ODAxIDE2Mi4zMjcgNTUuNDkgMTYyLjAyIDU1LjQ4NzhDMTYxLjgyNCA1NS40ODc4IDE2MS42MjUgNTUuNTI4IDE2MS40MzggNTUuNjA1OEgxNjEuNDI5TDE2MS40MjIgNTUuNjEzMUMxNjAuODY5IDU1Ljg3MDggMTYwLjUzMSA1Ni40MjM5IDE2MC41MjggNTcuMDI2NkMxNjAuNTI4IDU3LjIxNiAxNjAuNTY2IDU3LjQwNDkgMTYwLjYzOSA1Ny41OTE3SDE2MC42MzdMMTY3LjkzOSA3Ny4xOTc0Vjc3LjIwNDZDMTY3Ljk5NiA3Ny4zNTA4IDE2OC4wNzYgNzcuNDk1MyAxNjguMTk0IDc3LjYzNzJDMTY4LjI3OSA3Ny43Mzg5IDE2OC40MDUgNzcuODI0IDE2OC41MzUgNzcuODk1QzE2OC41NTkgNzcuOTE4NSAxNjguNTk2IDc3Ljk1MTQgMTY4LjY1MyA3Ny45ODY5QzE2OC43MTQgNzguMDI0OSAxNjguNzkyIDc4LjA1MSAxNjguODczIDc4LjA2NTFDMTY5LjAwMyA3OC4xMDc4IDE2OS4xNzUgNzguMTcxMSAxNjkuNDA3IDc4LjE3MTFDMTY5LjcwMiA3OC4xNzExIDE2OS45NzcgNzguMDY1MSAxNzAuMjIyIDc3LjkwNjVDMTcwLjQ1MiA3Ny43NTMgMTcwLjY1NyA3Ny41MjM1IDE3MC43NzEgNzcuMjI2TDE3MC43OSA3Ny4yMTE1TDE3NS40MDYgNjYuMTc0NkwxODAuMDMgNzcuMTY2NkgxODAuMDM1QzE4MC4xNDEgNzcuNDU5OCAxODAuMzI4IDc3LjY4OTQgMTgwLjU0NiA3Ny44NTIyQzE4MC43NzUgNzguMDI0OSAxODEuMDMyIDc4LjEzMTMgMTgxLjMwNCA3OC4xNzExSDE4MS40OThDMTgxLjY4MyA3OC4xNzExIDE4MS44NjIgNzguMTM2IDE4Mi4wMTMgNzguMDc3MUMxODIuMTcyIDc4LjAxNTUgMTgyLjMgNzcuOTM1MSAxODIuNDA2IDc3Ljg1NDhDMTgyLjY1NCA3Ny42NjU0IDE4Mi44NDUgNzcuNDA1NSAxODIuOTY0IDc3LjExN1Y3Ny4xMTAxTDE5MC4yMTkgNTcuNTkxN0MxOTAuMjkgNTcuNDA0OSAxOTAuMzI3IDU3LjIxODEgMTkwLjMyNyA1Ny4wMjkyQzE5MC4zMjUgNTYuNDMxMiAxODkuOTcyIDU1Ljg2MTQgMTg5LjM5MSA1NS42MTMxWk0xNTYuMDEzIDY2LjgwNTlDMTU2LjAxMyA2NC41MDM3IDE1NS4xMjkgNjIuNDE4NiAxNTMuNzIzIDYwLjkxMjZDMTUyLjMwOSA1OS40MDQ2IDE1MC4zOTQgNTguNDgyNiAxNDguMzE0IDU4LjQ4MjZDMTQ2LjIzNCA1OC40ODI2IDE0NC4zMTUgNTkuNDA0NiAxNDIuOTAzIDYwLjkxMjZDMTQxLjQ5NCA2Mi40MTg2IDE0MC42MSA2NC41MDM3IDE0MC42MSA2Ni44MDU5QzE0MC42MSA2OS4xMDYxIDE0MS40OTQgNzEuMTcyIDE0Mi45MDMgNzIuNjY4QzE0NC4zMTUgNzQuMTY5MyAxNDYuMjM0IDc1LjA3NzIgMTQ4LjMxNCA3NS4wNzcyQzE1MC4zOTQgNzUuMDc3MiAxNTIuMzE2IDc0LjE2OTMgMTUzLjcyMyA3Mi42NjhDMTU1LjEyOSA3MS4xNzIgMTU2LjAxMyA2OS4xMDYxIDE1Ni4wMTMgNjYuODA1OVpNMTU1Ljk3MyA1OC44MTM4QzE1Ny45MjYgNjAuODg0NCAxNTkuMTEyIDYzLjcyNTcgMTU5LjExNyA2Ni44MDU5QzE1OS4xMTIgNjkuODg2MiAxNTcuOTI2IDcyLjcyNDkgMTU1Ljk3MyA3NC43OTU5QzE1NC4wMzUgNzYuODY0NCAxNTEuMzI4IDc4LjE3MTUgMTQ4LjMxOSA3OC4xNzE1QzE0NS4zMzMgNzguMTcxNSAxNDIuNjIyIDc2Ljg2NDQgMTQwLjY3NyA3NC43OTU5QzEzOC43MjkgNzIuNzI0OSAxMzcuNTIzIDY5Ljg4NjIgMTM3LjUyMyA2Ni44MDU5QzEzNy41MjMgNjMuNzI1NyAxMzguNzI5IDYwLjg4NDQgMTQwLjY3NyA1OC44MTM4QzE0Mi42MjIgNTYuNzQ3NSAxNDUuMzMzIDU1LjQ0MDQgMTQ4LjMxOSA1NS40NDA0QzE1MS4zMjggNTUuNDQwNCAxNTQuMDM1IDU2Ljc0NzUgMTU1Ljk3MyA1OC44MTM4Wk0xMjUuMjMxIDU1LjQ4MDVDMTIyLjgxIDU1LjQ4MDUgMTIwLjYgNTYuNDIzOSAxMTguOTUgNTcuOTI5NFY1Ny4wMjkyQzExOC45NDggNTYuNjE1NCAxMTguNzk0IDU2LjIyOTkgMTE4LjUyNSA1NS45NDY1QzExOC4yNjMgNTUuNjY3MyAxMTcuODc1IDU1LjQ4MDUgMTE3LjQ0OSA1NS40ODA1QzExNy4wMDkgNTUuNDgwNSAxMTYuNjEyIDU1LjY1NzkgMTE2LjMzNiA1NS45NDM5QzExNi4wNjQgNTYuMjI1MiAxMTUuOTAxIDU2LjYxNTQgMTE1LjkwMSA1Ny4wMjkyVjc3LjA5MTNMMTE1Ljk2NSA3Ny4xNTVMMTE1Ljk2NyA3Ny4xNjQ0QzExNS45ODQgNzcuMjMwNyAxMTYuMDI2IDc3LjMwMzggMTE2LjA3MSA3Ny4zNzQ3QzExNi4yODEgNzcuNzQ1OCAxMTYuNjI2IDc4LjAyNzUgMTE3LjA1NCA3OC4xNTIzTDExNy4xMTYgNzguMTcxNUgxMTcuNDQ5QzExNy42NzIgNzguMTcxNSAxMTcuODk2IDc4LjEyNDEgMTE4LjEwOSA3OC4wMjQ5QzExOC4yODYgNzcuOTM5OCAxMTguNDUyIDc3LjgwMjYgMTE4LjU4NCA3Ny42Mjc4TDExOC41ODkgNzcuNjI5OUMxMTguNjA1IDc3LjYxMzcgMTE4LjYxIDc3LjU5MjMgMTE4LjYyOSA3Ny41NzU2QzExOC42MzYgNzcuNTczNSAxMTguNjQzIDc3LjU2NjIgMTE4LjY0OCA3Ny41NTlDMTE4LjczIDc3LjQ1MyAxMTguNzk5IDc3LjM0NCAxMTguODQyIDc3LjI0MjdDMTE4Ljg4NyA3Ny4xMjE3IDExOC45MTUgNzcuMDA4NCAxMTguOTM2IDc2LjkyMDhMMTE4Ljk1IDc2Ljg2NDRWNjQuODE3OUMxMTguOTk1IDYzLjA5NDggMTE5LjcwNCA2MS41MzY3IDEyMC44NDIgNjAuNDA0NEMxMjEuOTcxIDU5LjI3MjUgMTIzLjUyIDU4LjU3MjggMTI1LjIzMSA1OC41NzI4QzEyNi45NzEgNTguNTcyOCAxMjguNTI0IDU5LjI3MjUgMTI5LjY0OSA2MC40MDQ0QzEzMC43NzkgNjEuNTMyNCAxMzEuNDY1IDYzLjA4NzUgMTMxLjQ2NSA2NC44MDE2Vjc2LjYzMDFDMTMxLjQ2NSA3Ny4wNjI3IDEzMS42NDkgNzcuNDYyNCAxMzEuOTI4IDc3LjczNjRDMTMyLjIxNCA3OC4wMTA0IDEzMi42MDQgNzguMTcxNSAxMzMuMDExIDc4LjE3MTVDMTMzLjQyNCA3OC4xNzE1IDEzMy44MTIgNzguMDEwNCAxMzQuMDk2IDc3LjczNjRDMTM0LjM4NCA3Ny40NjI0IDEzNC41NTkgNzcuMDYyNyAxMzQuNTU5IDc2LjYzMDFWNjQuODAxNkMxMzQuNTU5IDU5LjY5NTcgMTMwLjM4OSA1NS40ODc4IDEyNS4yMzEgNTUuNDgwNVpNMjc3LjYxMyA2NC42MTIyQzI3Ni43MzQgNjEuMDQ1MSAyNzMuNjAxIDU4LjUwMzkgMjcwLjAyNyA1OC41MTEyQzI2Ni4zNjMgNTguNTExMiAyNjMuMjc0IDYwLjk5ODEgMjYyLjMxNiA2NC42MTIySDI3Ny42MTNaTTI4MSA2Ni4wNzMzVjY2LjIyNjdDMjgxIDY2LjY1NDYgMjgwLjgwOCA2Ny4wMzk4IDI4MC41MTggNjcuMjkyOEMyODAuMjMgNjcuNTQ4IDI3OS44NTQgNjcuNjgwNSAyNzkuNDUgNjcuNjg1MkgyNjIuMTAxQzI2Mi41NDMgNzEuOTE4NyAyNjUuOTIzIDc1LjA0NDMgMjY5Ljk1OCA3NS4wNzcySDI3MC45ODJDMjcyLjMxOCA3NS4wODE5IDI3My42MTggNzQuNjIxMSAyNzQuNzYyIDczLjg1NzJDMjc1LjkwOCA3My4xMDExIDI3Ni44OTkgNzIuMDQ0NCAyNzcuNTk2IDcwLjg4MTNDMjc3Ljc0IDcwLjYzMjkgMjc3Ljk0NiA3MC40NDQgMjc4LjE3IDcwLjMyODJDMjc4LjQgNzAuMjAyOSAyNzguNjQ2IDcwLjE0NjEgMjc4Ljg5NCA3MC4xNDYxQzI3OS4xNjggNzAuMTQ2MSAyNzkuNDQgNzAuMjE3IDI3OS42NzkgNzAuMzYxMUwyNzkuNjk1IDcwLjM2ODNMMjc5LjcxNCA3MC4zODI1QzI4MC4xNDkgNzAuNzAxOCAyODAuNDIxIDcxLjE4ODYgMjgwLjQyMSA3MS43MjI5QzI4MC40MjEgNzEuOTk0OCAyODAuMzUgNzIuMjcxNCAyODAuMjAxIDcyLjUyMTlMMjgwLjE5NyA3Mi41MzEzTDI4MC4xOTIgNzIuNTM2QzI3OS4yMjIgNzQuMDc3NCAyNzcuOTAxIDc1LjQ4MzcgMjc2LjMzMiA3Ni41MDI3QzI3NC43NiA3Ny41MjM5IDI3Mi45MzcgNzguMTcxNSAyNzAuOTgyIDc4LjE3MTVIMjY5Ljk0MkMyNjYuODk3IDc4LjE1MDEgMjY0LjE0NiA3Ni44NjQ0IDI2Mi4xNjMgNzQuODA3NUMyNjAuMTg0IDcyLjc1ODIgMjU4Ljk2NCA2OS45NDI2IDI1OC45NjQgNjYuODQ4N0MyNTguOTY0IDYzLjcwMjIgMjYwLjE5NCA2MC44NDY4IDI2Mi4xODkgNTguNzgwNUMyNjQuMTg0IDU2LjcxNzIgMjY2Ljk1NiA1NS40NDA0IDI3MC4wMjcgNTUuNDQwNEMyNzIuOTU4IDU1LjQ0MDQgMjc1LjU5MSA1Ni42MDYgMjc3LjU0MiA1OC41MTM4QzI3OS40OTIgNjAuNDIxMSAyODAuNzY2IDYzLjA3MDggMjgwLjk5MyA2Ni4wNTE5TDI4MSA2Ni4wNzMzWk0yMDkuODQxIDQ2LjEwMzFDMjA5LjQxOCA0Ni4xMDMxIDIwOS4wMyA0Ni4yODA1IDIwOC43NTEgNDYuNTU5NkMyMDguNDcyIDQ2LjgzNjEgMjA4LjI5NSA0Ny4yMjYgMjA4LjI5NSA0Ny42NDkyVjc2LjYzMDFDMjA4LjI5NSA3Ny4wNTMzIDIwOC40NzIgNzcuNDQxIDIwOC43NTEgNzcuNzE1NEMyMDkuMDMgNzcuOTg5NCAyMDkuNDE4IDc4LjE3MTUgMjA5Ljg0MSA3OC4xNzE1QzIxMC43MTggNzguMTcxNSAyMTEuNDI3IDc3LjQ4MTIgMjExLjQzMiA3Ni42MzAxVjQ3LjY0OTJDMjExLjQyNyA0Ni43OTYgMjEwLjcxOCA0Ni4xMDMxIDIwOS44NDEgNDYuMTAzMVpNMTA4Ljc0OCA2Ni4yNTI4QzEwNy41IDY1LjY2NDIgMTA2LjA4NCA2NS4yMjk1IDEwNC42NzEgNjQuNzYxQzEwMy4zNyA2NC4zMjE2IDEwMi4wNTEgNjMuOTQ4IDEwMS4xMSA2My40NTY0QzEwMC42MzcgNjMuMjAzNCAxMDAuMjY5IDYyLjkzNjIgMTAwLjAzIDYyLjYzNjFDOTkuNzg2NCA2Mi4zMzYxIDk5LjY2ODQgNjIuMDMwOSA5OS42NjEyIDYxLjYxNDlDOTkuNjYzNyA2MS4wNDUxIDk5LjgyOTIgNjAuNTg2NSAxMDAuMTA4IDYwLjE4QzEwMC41MzEgNTkuNTcyNiAxMDEuMjQgNTkuMDk5OCAxMDIuMDE2IDU4Ljc5NDZDMTAyLjc4MiA1OC40ODc3IDEwMy42MTEgNTguMzQzMiAxMDQuMjA1IDU4LjM0MzJDMTA1Ljk1OCA1OC4zNDU4IDEwNy4wNjcgNTguOTI5NyAxMDcuOTE4IDU5LjUzNDVDMTA4LjMzOSA1OS44Mzk3IDEwOC42OTQgNjAuMTQ5MiAxMDkuMDI5IDYwLjQwNDRDMTA5LjIwMiA2MC41MzY5IDEwOS4zNjMgNjAuNjU3NCAxMDkuNTQ5IDYwLjc0NzJDMTA5LjcyNiA2MC44MzQ4IDEwOS45MzUgNjAuOTA1OCAxMTAuMTYyIDYwLjkwNThDMTEwLjMwNiA2MC45MDU4IDExMC40NSA2MC44Nzk3IDExMC41ODIgNjAuODIyOUMxMTAuNzIyIDYwLjc2NjQgMTEwLjg0MyA2MC42ODYxIDExMC45NTggNjAuNTg2NUMxMTEuMDcyIDYwLjQ4MDUgMTExLjE2OSA2MC4zNTI3IDExMS4yMzcgNjAuMjEwOEMxMTEuMjk5IDYwLjA2NDEgMTExLjMyNyA1OS45MTI4IDExMS4zMjcgNTkuNzY0MUMxMTEuMzI3IDU5LjQ4OTYgMTExLjIzOSA1OS4yMzIzIDExMS4xMTQgNTguOTkwOEMxMTAuODggNTguNTY1NSAxMTAuNTIxIDU4LjE1OSAxMTAuMDYyIDU3Ljc1MjVDMTA5LjM4MSA1Ny4xNDcyIDEwOC40ODMgNTYuNTcwNiAxMDcuNTE2IDU2LjEzNTRDMTA2LjU0NyA1NS43MDA3IDEwNS41MDcgNTUuNDA0OSAxMDQuNTE3IDU1LjQwNDlDMTAyLjIyMSA1NS40MDQ5IDEwMC4zMDQgNTUuOTI1MSA5OC45MTE4IDU2Ljg4MjZDOTguMTg2IDU3LjM4MzYgOTcuNTQ3OCA1Ny45MzIgOTcuMDk2NCA1OC42ODg2Qzk2LjYzNzggNTkuNDQ3MyA5Ni4zODI2IDYwLjM4MzQgOTYuMzQ5MyA2MS42MDA4Qzk2LjM0NzEgNjEuNjU1MSA5Ni4zNDcxIDYxLjcwOTQgOTYuMzQ3MSA2MS43NjM3Qzk2LjM0MjQgNjIuOTQ1NiA5Ni43MjI4IDYzLjkxOTggOTcuMzIwOSA2NC42ODMyQzk4LjIyODggNjUuODMyMiA5OS41NzYxIDY2LjUyIDEwMC44OTggNjcuMDA2OEMxMDIuMjE3IDY3LjQ5MzcgMTAzLjUzNiA2Ny43ODQ4IDEwNC4zNjggNjguMDYzNUMxMDUuNTQgNjguNDUzOCAxMDYuNzg2IDY4Ljg3NjUgMTA3LjY5MyA2OS40MzY5QzEwOC4xNDUgNjkuNzIyOSAxMDguNTEyIDcwLjAzMDIgMTA4Ljc2IDcwLjM2ODNDMTA5LjAwMSA3MC43MTU5IDEwOS4xMzggNzEuMDc0OSAxMDkuMTQzIDcxLjUyODlWNzEuNTYyMkMxMDkuMTQgNzIuMjE5MiAxMDguOTQ3IDcyLjczNDcgMTA4LjYyNyA3My4xNzY3QzEwOC4xNDUgNzMuODMzNyAxMDcuMzQ0IDc0LjMxNTkgMTA2LjQ5MyA3NC42MjExQzEwNS42NDQgNzQuOTE4NiAxMDQuNzYyIDc1LjA0NDMgMTA0LjE5NSA3NS4wNDQzQzEwMi4xOTMgNzUuMDQ0MyAxMDAuODUzIDc0LjU2MTcgOTkuODgxMyA3NC4wNzc0Qzk5LjM5NCA3My44MzM3IDk4Ljk5OTUgNzMuNTkyNiA5OC42NDI1IDczLjM4OTJDOTguNDY1MiA3My4yOTIxIDk4LjI5OTcgNzMuMjAyNCA5OC4xMjQ5IDczLjEzMTRDOTcuOTU0MyA3My4wNjA5IDk3Ljc3MjcgNzMuMDE1NiA5Ny41NjcxIDczLjAxNTZDOTcuNDQxOCA3My4wMTU2IDk3LjMwNDYgNzMuMDM2OSA5Ny4xNzg5IDczLjA4NjVDOTcuMDUxNiA3My4xNDEyIDk2LjkzNTcgNzMuMjE2OSA5Ni44Mzg3IDczLjMwODhDOTYuNzA0IDczLjQzOTIgOTYuNTg2MSA3My41ODU0IDk2LjUwMzEgNzMuNzUzNEM5Ni40MjI4IDczLjkyMTMgOTYuMzgyNiA3NC4wOTgzIDk2LjM4MjYgNzQuMjgzQzk2LjM4MjYgNzQuNTg1NiA5Ni40OTU5IDc0Ljg2MjIgOTYuNjU3IDc1LjExMjdDOTYuOTA5NiA3NS40NzQzIDk3LjI4MTEgNzUuNzk4MyA5Ny43NDQgNzYuMTIxOUM5OC4yMjE1IDc2LjQ0MTIgOTguNzkxMyA3Ni43NTU0IDk5LjQ0ODMgNzcuMDY1M0MxMDAuOTA1IDc3Ljc1MyAxMDIuNzcyIDc4LjExMjUgMTA0LjE5IDc4LjEzNkgxMDQuMTk1QzEwNi40MDEgNzguMTM2IDEwOC4zMDYgNzcuNjI3OCAxMDkuOTExIDc2LjQ0NTlWNzYuNDQzM0gxMDkuOTEzQzExMS40ODMgNzUuMjYxNCAxMTIuNDU5IDczLjUwNSAxMTIuNDU5IDcxLjUyMkMxMTIuNDU5IDcwLjQzMiAxMTIuMjA0IDY5LjUwNzkgMTExLjc1NyA2OC43NTEzQzExMS4wODQgNjcuNjA0OSAxMDkuOTg5IDY2Ljg0ODcgMTA4Ljc0OCA2Ni4yNTI4Wk0yMzMuMTUzIDY2LjgwNTlDMjMzLjE1MyA2NC40ODIzIDIzMi4yNzYgNjIuMzk5NyAyMzAuODc1IDYwLjg5NjRDMjI5LjQ3NSA1OS4zOTc3IDIyNy41NTMgNTguNDg3NyAyMjUuNDUxIDU4LjQ4M0MyMjMuMzY3IDU4LjQ4MyAyMjEuNDUyIDU5LjM5NzcgMjIwLjAzOCA2MC44OTY0QzIxOC42MzQgNjIuMzk5NyAyMTcuNzQ2IDY0LjQ4MjMgMjE3Ljc0NiA2Ni44MDU5QzIxNy43NDYgNjkuMTI3NCAyMTguNjM0IDcxLjE5NTkgMjIwLjAzOCA3Mi42ODczQzIyMS40NDUgNzQuMTc5MSAyMjMuMzY3IDc1LjA3NzIgMjI1LjQ1MSA3NS4wNzcyQzIyNy41NTggNzUuMDc3MiAyMjkuNDggNzQuMTc5MSAyMzAuODc5IDcyLjY5MkMyMzIuMjc2IDcxLjE5NTkgMjMzLjE1MyA2OS4xMjk2IDIzMy4xNTMgNjYuODA1OVpNMjM1Ljc4MiA1NS44NzA4QzIzNi4wNjggNTYuMTQ3NCAyMzYuMjQ1IDU2LjU0NyAyMzYuMjQ1IDU2Ljk3OTJWNzYuNjMwMUMyMzYuMjQ1IDc3LjA1MzMgMjM2LjA2MyA3Ny40NDEgMjM1Ljc5MiA3Ny43MTU0QzIzNS41MTIgNzcuOTg5NCAyMzUuMTI3IDc4LjE3MTUgMjM0LjcwMiA3OC4xNzE1QzIzNC4yNzYgNzguMTcxNSAyMzMuODg2IDc3Ljk4OTQgMjMzLjYxMiA3Ny43MTU0QzIzMy4zMzMgNzcuNDQxIDIzMy4xNTMgNzcuMDUzMyAyMzMuMTUzIDc2LjYzMDFWNzQuNzEzQzIzMS4yMDggNzYuODE0OCAyMjguNDc1IDc4LjE3MTUgMjI1LjQ1MSA3OC4xNzE1QzIyMi40NDMgNzguMTcxNSAyMTkuNzMzIDc2Ljg3ODUgMjE3Ljc5MyA3NC44MDc1QzIxNS44NDUgNzIuNzQ2MyAyMTQuNjU0IDY5LjkwNzEgMjE0LjY1NCA2Ni44MDU5QzIxNC42NTQgNjMuNzA0OCAyMTUuODQ1IDYwLjg2MzEgMjE3Ljc5MyA1OC43OTk3QzIxOS43MzMgNTYuNzMxMyAyMjIuNDQzIDU1LjQ0MDQgMjI1LjQ1MSA1NS40NDA0QzIyOC40NzMgNTUuNDQwNCAyMzEuMjA4IDU2Ljc1NzQgMjMzLjE1MyA1OC44NDkzVjU2Ljk3OTJDMjMzLjE1MyA1Ni41NDcgMjMzLjMzMSA1Ni4xNDc0IDIzMy42MTcgNTUuODcwOEMyMzMuOTAzIDU1LjU5OSAyMzQuMjg4IDU1LjQ0MDQgMjM0LjcwMiA1NS40NDA0QzIzNS4xMTEgNTUuNDQwNCAyMzUuNTAxIDU1LjU5OSAyMzUuNzgyIDU1Ljg3MDhaTTI1Ny42MDggNTcuODYzNkMyNTcuOTE1IDU3LjU1ODQgMjU4LjA4MiA1Ny4xNTQgMjU4LjA4MiA1Ni43NTI3QzI1OC4wODIgNTYuMzU3NyAyNTcuOTE1IDU1Ljk2MjcgMjU3LjYwNSA1NS42NzY4SDI1Ny42MDhDMjU3LjYwNSA1NS42NjczIDI1Ny41OTggNTUuNjY3MyAyNTcuNTk4IDU1LjY2NzNDMjU3LjU5NiA1NS42NjA1IDI1Ny41OTEgNTUuNjU3OSAyNTcuNTkxIDU1LjY1NzlIMjU3LjU4NkMyNTcuMjg4IDU1LjM2NDcgMjU2LjkwNSA1NS4yMDQgMjU2LjUxIDU1LjIwNEMyNTYuMTExIDU1LjIwNCAyNTUuNzIxIDU1LjM2OTggMjU1LjQyMyA1NS42NjczTDI0My4zMzcgNjcuNDQ2N1Y0Ny42NDkyQzI0My4zMzcgNDYuNzk2IDI0Mi42MjMgNDYuMTAzMSAyNDEuNzQ2IDQ2LjEwMzFDMjQxLjMyMyA0Ni4xMDMxIDI0MC45MzUgNDYuMjgwNSAyNDAuNjU5IDQ2LjU1OTZDMjQwLjM4NCA0Ni44MzYxIDI0MC4yIDQ3LjIyNiAyNDAuMiA0Ny42NDkyVjc2LjYzMDFDMjQwLjIgNzcuMDUzMyAyNDAuMzg0IDc3LjQ0MSAyNDAuNjU5IDc3LjcxNTRDMjQwLjkzNSA3Ny45ODk0IDI0MS4zMjMgNzguMTcxNSAyNDEuNzQ2IDc4LjE3MTVDMjQyLjYyMyA3OC4xNzE1IDI0My4zMzcgNzcuNDgxMiAyNDMuMzM3IDc2LjYzMDFWNzEuODQ4MkwyNDcuMjczIDY3LjkxNjlMMjU1LjI5NiA3Ny41OTdDMjU1LjQ0NyA3Ny44MTkzIDI1NS42NTMgNzcuOTcyOCAyNTUuODU2IDc4LjA1MzFDMjU2LjA4OCA3OC4xNDA3IDI1Ni4zMTIgNzguMTcxNSAyNTYuNTEzIDc4LjE3MTVDMjU2Ljc4OSA3OC4xNzE1IDI1Ny4xOCA3OC4xMTI1IDI1Ny41MjMgNzcuODQyOEwyNTcuNTQxIDc3LjgzMTNMMjU3LjU2MiA3Ny44MDk5QzI1Ny44ODQgNzcuNDkzMiAyNTguMDY2IDc3LjA3MjEgMjU4LjA2NiA3Ni42NDIxQzI1OC4wNjYgNzYuMjgwNSAyNTcuOTMyIDc1LjkxMTYgMjU3LjY4MyA3NS42MTYyVjc1LjYxMTVMMjQ5LjUxNiA2NS42ODNMMjU3LjYgNTcuODYzNkgyNTcuNjA4Wk0yMDMuNDYzIDQ2LjE3MTlIMjAzLjExOEMyMDMuMDczIDQ2LjE3MTkgMjAzLjAyOCA0Ni4xNzY2IDIwMi45ODEgNDYuMTc4N0MyMDIuOTM4IDQ2LjE3NjYgMjAyLjg5MyA0Ni4xNzE5IDIwMi44NDkgNDYuMTcxOUMyMDEuOTU3IDQ2LjE3MTkgMjAxLjA5MiA0Ni4yNzMyIDIwMC4yODMgNDYuNTQyOUMxOTkuNDg3IDQ2LjgwNzUgMTk4Ljc1MiA0Ny4yNDQ4IDE5OC4xODIgNDcuOTA5NUwxOTguMTggNDcuOTA2OUwxOTguMTc4IDQ3LjkwOTVWNDcuOTExNkMxOTcuNTg5IDQ4LjU2NjUgMTk3LjIwMSA0OS4zNDg3IDE5Ni45NjUgNTAuMjM3OEMxOTYuNzI5IDUxLjEzMTIgMTk2LjYzMSA1Mi4xMzgzIDE5Ni42MjIgNTMuMjgyMlY1NS40OTc2SDE5NC4xOEMxOTMuMzMyIDU1LjUwMjMgMTkyLjY1OCA1Ni4xODA3IDE5Mi42NTggNTcuMDAxQzE5Mi42NTMgNTcuNDQzIDE5Mi44MjYgNTcuODQ5NSAxOTMuMTA1IDU4LjE0MjdDMTkzLjM4NiA1OC40MzEzIDE5My43NzEgNTguNjIwMiAxOTQuMTk5IDU4LjY0MzdIMTk2LjYyMlY3Ni42NjgyTDE5Ni42MiA3Ni43MTA1QzE5Ni42MiA3Ny4xMzM3IDE5Ni43OTcgNzcuNTIzNSAxOTcuMDgzIDc3LjgwMjZDMTk3LjM2NiA3OC4wNzcxIDE5Ny43NjQgNzguMjM5OSAxOTguMTk3IDc4LjIzOTlDMTk5LjAxOSA3OC4yMzUyIDE5OS42OTUgNzcuNTY0MSAxOTkuNjk3IDc2LjcxMDVWNTguNjQzN0gyMDIuMzI0QzIwMi43NDcgNTguNjIwMiAyMDMuMTM3IDU4LjQ0MjggMjAzLjQxNiA1OC4xNTY4QzIwMy43MDIgNTcuODcwOSAyMDMuODc3IDU3LjQ2OTEgMjAzLjg3NyA1Ny4wMzM5VjU2Ljk3NDlDMjAzLjg2NyA1Ni4xNjQgMjAzLjE4OSA1NS40OTc2IDIwMi4zNCA1NS40OTc2SDE5OS42OTdWNTMuMjkxNkMxOTkuNzE0IDUyLjMxNTcgMTk5LjgxNiA1MS41ODUyIDE5OS45NjIgNTEuMDUzNEMyMDAuMTA0IDUwLjUxOTEgMjAwLjI5OCA1MC4xODMxIDIwMC40NzMgNDkuOTc1NEMyMDAuNjQzIDQ5Ljc5MDcgMjAwLjg2NSA0OS42MzczIDIwMS4yMjcgNDkuNTE0MUMyMDEuNTkxIDQ5LjM5NjIgMjAyLjA5NSA0OS4zMjA1IDIwMi43NzUgNDkuMzIwNUgyMDIuODU2QzIwMi44OTYgNDkuMzIwNSAyMDIuOTM4IDQ5LjMxMzIgMjAyLjk3NiA0OS4zMTMyQzIwMy4wMjQgNDkuMzEzMiAyMDMuMDY4IDQ5LjMyMDUgMjAzLjExOCA0OS4zMjA1SDIwMy4zMTdIMjAzLjQ2M0MyMDQuMzM1IDQ5LjMyMDUgMjA1LjAzOCA0OC42MTYxIDIwNS4wMzggNDcuNzQ2MkMyMDUuMDM4IDQ2Ljg3NjMgMjA0LjMzNSA0Ni4xNzE5IDIwMy40NjMgNDYuMTcxOVpNNDcuNzcyMSA2Ny44MjkzQzQ3Ljg5NzMgNjcuNDM0MyA0Ny45NDk1IDY3LjAyNzggNDcuOTQwMSA2Ni42MjZDNDcuOTI1NSA2Ni4zMzUzIDQ3Ljg4NzkgNjYuMDQ0NiA0Ny44MDU0IDY1Ljc1NEM0Ny41NTcxIDY0Ljg1MDggNDYuOTY4NSA2NC4wNDQ2IDQ2LjA4NjYgNjMuNTM2M0wzMy41NDM5IDU2LjI5MzZDMzEuNzczMyA1NS4yNzQ1IDI5LjUxNiA1NS44ODAyIDI4LjQ5OTUgNTcuNjQ4MkMyNy40NzM2IDU5LjQxNCAyOC4wNzg5IDYxLjY2ODggMjkuODQ5NCA2Mi42OTA0TDM2Ljg1ODMgNjYuNzQ0NEwyOS44NDk0IDcwLjc4NjRDMjguMDc4OSA3MS44MTAxIDI3LjQ3NTcgNzQuMDY1IDI4LjQ5OTUgNzUuODM4QzI5LjUxNiA3Ny42MDEzIDMxLjc3MzMgNzguMjA0NCAzMy41NDM5IDc3LjE4NTRMNDYuMDg2NiA2OS45Mzc5QzQ2LjkzMyA2OS40NTEgNDcuNTA3NSA2OC42ODcyIDQ3Ljc3MjEgNjcuODI5M1pNNTEuMTc1OSA3NC42MTZDNTAuNDU1MiA3NC41NTQ0IDQ5LjcwNTkgNzQuNzA1NyA0OS4wMzIyIDc1LjA5ODFMMzYuNDggODIuMzM2MkMzNC43MTQyIDgzLjM1NzQgMzQuMTExMSA4NS42MjQyIDM1LjEzMDEgODcuMzkyNkMzNi4xNTM5IDg5LjE1NjIgMzguNDA5MSA4OS43NjM2IDQwLjE3MjQgODguNzM3OEw0Ny4yMDQ5IDg0LjY4MTJWOTIuNzg3QzQ3LjIwNDkgOTQuODI5NCA0OC44NTcgOTYuNDg0MSA1MC45MDE5IDk2LjQ4NDFDNTIuOTM3IDk2LjQ4NDEgNTQuNTk0MyA5NC44Mjk0IDU0LjU5NDMgOTIuNzg3Vjc4LjI5NjNDNTQuNTk0MyA3Ni4zNTEgNTMuMDg2MiA3NC43NTI3IDUxLjE3NTkgNzQuNjE2Wk02NC4wMzA3IDU4Ljg2NzdDNjQuNzQ5MyA1OC45MjY3IDY1LjQ5NjUgNTguNzczMiA2Ni4xNzAxIDU4LjM4NTVMNzguNzE5OCA1MS4xNDA2QzgwLjQ4ODEgNTAuMTE5IDgxLjA4ODMgNDcuODYxNiA4MC4wNzE4IDQ2LjA4OUM3OS4wNTMyIDQ0LjMyMzEgNzYuNzk1OCA0My43MTc5IDc1LjAyOTYgNDQuNzM5MUw2OC4wMDIyIDQ4LjgwMDNWNDAuNjkxOUM2OC4wMDIyIDM4LjY1NDcgNjYuMzQ5NyAzNyA2NC4zMDUyIDM3QzYyLjI2MDIgMzcgNjAuNjEyNCAzOC42NTQ3IDYwLjYxMjQgNDAuNjkxOVY1NS4xODI2QzYwLjYxMjQgNTcuMTI1OCA2Mi4xMTYyIDU4LjcyNjIgNjQuMDMwNyA1OC44Njc3Wk0zNi40OCA1MS4xNDA2TDQ5LjAzMjIgNTguMzg1NUM0OS43MDU5IDU4Ljc3MzIgNTAuNDU1MiA1OC45MjY3IDUxLjE3NTkgNTguODY3N0M1My4wODYyIDU4LjcyNjIgNTQuNTk0MyA1Ny4xMjU4IDU0LjU5NDMgNTUuMTgyNlY0MC42OTE5QzU0LjU5NDMgMzguNjU0NyA1Mi45MzcgMzcgNTAuOTAxOSAzN0M0OC44NTcgMzcgNDcuMjA0OSAzOC42NTQ3IDQ3LjIwNDkgNDAuNjkxOVY0OC44MDAzTDQwLjE3MjQgNDQuNzM5MUMzOC40MDkxIDQzLjcxNzkgMzYuMTUzOSA0NC4zMjMxIDM1LjEzMDEgNDYuMDg5QzM0LjExMTEgNDcuODYxNiAzNC43MTQyIDUwLjExOSAzNi40OCA1MS4xNDA2Wk02MC4wNjg3IDY2LjcxMzZDNjAuMDY4NyA2Ni41MDMzIDU5Ljk0MTMgNjYuMjEwMSA1OS43OTI1IDY2LjA1NDFMNTguMjgxOSA2NC41NTA3QzU4LjEzMzIgNjQuNDAxOSA1Ny44Mzk5IDY0LjI3ODggNTcuNjI5MiA2NC4yNzg4SDU3LjU3MDJDNTcuMzU5OSA2NC4yNzg4IDU3LjA2NzEgNjQuNDAxOSA1Ni45MjA1IDY0LjU1MDdMNTUuNDA5OCA2Ni4wNTQxQzU1LjI1ODUgNjYuMjEwMSA1NS4xNDI3IDY2LjUwMzMgNTUuMTQyNyA2Ni43MTM2VjY2Ljc3MjZDNTUuMTQyNyA2Ni45ODA4IDU1LjI1ODUgNjcuMjcxNCA1NS40MDk4IDY3LjQyMjhMNTYuOTIwNSA2OC45MzA4QzU3LjA2OTIgNjkuMDc5NiA1Ny4zNTk5IDY5LjIwMjcgNTcuNTcwMiA2OS4yMDI3SDU3LjYyOTJDNTcuODM5OSA2OS4yMDI3IDU4LjEzMzIgNjkuMDc5NiA1OC4yODE5IDY4LjkzMDhMNTkuNzkyNSA2Ny40MjI4QzU5Ljk0MTMgNjcuMjcxNCA2MC4wNjg3IDY2Ljk4MDggNjAuMDY4NyA2Ni43NzI2VjY2LjcxMzZaTTY0LjIzODkgNjguMTYwMUw1OS4wMjE4IDczLjM3MDRDNTguODcyNyA3My41MjM4IDU4LjU4NDUgNzMuNjQ5MSA1OC4zNjcgNzMuNjQ5MUg1Ny45ODg3SDU3LjIxOEg1Ni44MzI4QzU2LjYyMjEgNzMuNjQ5MSA1Ni4zMjkzIDczLjUyMzggNTYuMTc4IDczLjM3MDRMNTAuOTYzNSA2OC4xNjAxQzUwLjgxNDMgNjguMDEzNSA1MC42OTM3IDY3LjcxODEgNTAuNjkzNyA2Ny41MTA0VjY3LjEyNDhWNjYuMzU0MVY2NS45NzM3QzUwLjY5MzcgNjUuNzYwOCA1MC44MTQzIDY1LjQ2NTQgNTAuOTYzNSA2NS4zMTY3TDU2LjE3OCA2MC4xMDY1QzU2LjMyOTMgNTkuOTUzIDU2LjYyMjEgNTkuODMyNSA1Ni44MzI4IDU5LjgzMjVINTcuMjE4SDU3Ljk4ODdINTguMzY3QzU4LjU3OTggNTkuODMyNSA1OC44NzI3IDU5Ljk1MyA1OS4wMjE4IDYwLjEwNjVMNjQuMjM4OSA2NS4zMTY3QzY0LjM4NzcgNjUuNDY1NCA2NC41MDgyIDY1Ljc2MDggNjQuNTA4MiA2NS45NzM3VjY2LjM1NDFWNjcuMTI0OFY2Ny41MTA0QzY0LjUwODIgNjcuNzE4MSA2NC4zODc3IDY4LjAxMzUgNjQuMjM4OSA2OC4xNjAxWk03OC43MTk4IDgyLjMzNjJMNjYuMTcwMSA3NS4wOTgxQzY1LjQ5NjUgNzQuNzA1NyA2NC43NDkzIDc0LjU1NDQgNjQuMDMwNyA3NC42MTZDNjIuMTE2MiA3NC43NTI3IDYwLjYxMjQgNzYuMzUxIDYwLjYxMjQgNzguMjk2M1Y5Mi43ODdDNjAuNjEyNCA5NC44Mjk0IDYyLjI2MDIgOTYuNDg0MSA2NC4zMDUyIDk2LjQ4NDFDNjYuMzQ5NyA5Ni40ODQxIDY4LjAwMjIgOTQuODI5NCA2OC4wMDIyIDkyLjc4N1Y4NC42ODEyTDc1LjAyOTYgODguNzM3OEM3Ni43OTU0IDg5Ljc2MzYgNzkuMDUzMiA4OS4xNTYyIDgwLjA3MTggODcuMzkyNkM4MS4wODgzIDg1LjYyNDIgODAuNDg4MSA4My4zNTc0IDc4LjcxOTggODIuMzM2MlpNODUuMzU1MSA2Mi42OTA0TDc4LjM0NjIgNjYuNzQ0NEw4NS4zNTUxIDcwLjc4NjRDODcuMTI1NyA3MS44MTAxIDg3LjczMDkgNzQuMDY1IDg2LjcwNzIgNzUuODM4Qzg1LjY4NiA3Ny42MDEzIDgzLjQyNjUgNzguMjA0NCA4MS42NjI4IDc3LjE4NTRMNjkuMTEwNiA2OS45Mzc5QzY4LjI3MzYgNjkuNDUxIDY3LjY5MjMgNjguNjg3MiA2Ny40MzQ2IDY3LjgyOTNDNjcuMzExOSA2Ny40MzQzIDY3LjI1NSA2Ny4wMjc4IDY3LjI2OTEgNjYuNjI2QzY3LjI3NjQgNjYuMzM1MyA2Ny4zMTg3IDY2LjA0NDYgNjcuMzk5MSA2NS43NTRDNjcuNjUgNjQuODUwOCA2OC4yMzg2IDY0LjA0NSA2OS4xMTA2IDYzLjUzNjNMODEuNjYyOCA1Ni4yOTM2QzgzLjQyNjUgNTUuMjc0NSA4NS42ODYgNTUuODgwMiA4Ni43MDcyIDU3LjY0ODJDODcuNzMwOSA1OS40MTQgODcuMTI1NyA2MS42Njg4IDg1LjM1NTEgNjIuNjkwNFpNMjg4LjkwNCA1NS40NjA2QzI4OC45MDQgNTcuNDkyNiAyODcuNTQ0IDU5LjE4ODYgMjg1LjI3MiA1OS4xODg2QzI4My4wMTYgNTkuMTg4NiAyODEuNjcyIDU3LjQ3NjYgMjgxLjY3MiA1NS40NjA2QzI4MS42NzIgNTMuNDI4NiAyODMuMDE2IDUxLjczMjYgMjg1LjI3MiA1MS43MzI2QzI4Ny41NDQgNTEuNzMyNiAyODguOTA0IDUzLjQyODYgMjg4LjkwNCA1NS40NjA2Wk0yODguMTg0IDU1LjQ2MDZDMjg4LjE4NCA1My43MzI2IDI4Ny4wMzIgNTIuNDIwNiAyODUuMjcyIDUyLjQyMDZDMjgzLjU0NCA1Mi40MjA2IDI4Mi4zOTIgNTMuNjY4NiAyODIuMzkyIDU1LjQ2MDZDMjgyLjM5MiA1Ny4xNzI2IDI4My41NDQgNTguNTAwNiAyODUuMjcyIDU4LjUwMDZDMjg3LjAzMiA1OC41MDA2IDI4OC4xODQgNTcuMTg4NiAyODguMTg0IDU1LjQ2MDZaTTI4My44NDggNTMuNzgwNkgyODUuNEMyODYuMjQ4IDUzLjc4MDYgMjg2LjgwOCA1NC4yNDQ2IDI4Ni44MDggNTQuOTY0NkMyODYuODA4IDU1LjQxMjYgMjg2LjU4NCA1NS43NDg2IDI4Ni4yNDggNTUuOTU2NkwyODYuODU2IDU2LjgzNjZWNTcuMDEyNkgyODUuOTc2TDI4NS4zODQgNTYuMTY0NkgyODQuNjk2VjU3LjAxMjZIMjgzLjg0OFY1My43ODA2Wk0yODUuMzg0IDU0LjU2NDZIMjg0LjY5NlY1NS40MTI2SDI4NS4zODRDMjg1LjcwNCA1NS40MTI2IDI4NS45MTIgNTUuMjY4NiAyODUuOTEyIDU0Ljk5NjZDMjg1LjkxMiA1NC43MDg2IDI4NS43MiA1NC41NjQ2IDI4NS4zODQgNTQuNTY0NloiIGZpbGw9IiMyOUI1RTgiLz4KPC9zdmc+Cg==;" parent="1" vertex="1">
          <mxGeometry x="150" y="141" width="195.44" height="82" as="geometry" />
        </mxCell>
        <mxCell id="7sl2i-Y2lmcS3EekDP7u-5" value="" style="strokeWidth=2;html=1;shape=mxgraph.flowchart.database;whiteSpace=wrap;" parent="1" vertex="1">
          <mxGeometry x="181" y="229" width="60" height="60" as="geometry" />
        </mxCell>
        <mxCell id="7sl2i-Y2lmcS3EekDP7u-7" value="DB(Dev)" style="text;html=1;align=center;verticalAlign=middle;resizable=0;points=[];autosize=1;strokeColor=none;fillColor=none;" parent="1" vertex="1">
          <mxGeometry x="256" y="244" width="70" height="30" as="geometry" />
        </mxCell>
        <mxCell id="7sl2i-Y2lmcS3EekDP7u-10" value="" style="strokeWidth=2;html=1;shape=mxgraph.flowchart.database;whiteSpace=wrap;" parent="1" vertex="1">
          <mxGeometry x="201" y="327" width="60" height="30" as="geometry" />
        </mxCell>
        <mxCell id="7sl2i-Y2lmcS3EekDP7u-11" value="Schema" style="text;html=1;align=center;verticalAlign=middle;resizable=0;points=[];autosize=1;strokeColor=none;fillColor=none;" parent="1" vertex="1">
          <mxGeometry x="256" y="327" width="70" height="30" as="geometry" />
        </mxCell>
        <mxCell id="_UhZb9Lw9bKP7ET5BVvL-1" value="" style="rounded=0;whiteSpace=wrap;html=1;" parent="1" vertex="1">
          <mxGeometry x="201" y="384" width="130" height="200" as="geometry" />
        </mxCell>
        <mxCell id="_UhZb9Lw9bKP7ET5BVvL-2" value="Original layer" style="text;html=1;align=center;verticalAlign=middle;resizable=0;points=[];autosize=1;strokeColor=none;fillColor=default;gradientColor=none;" parent="1" vertex="1">
          <mxGeometry x="216" y="369" width="90" height="30" as="geometry" />
        </mxCell>
        <mxCell id="_UhZb9Lw9bKP7ET5BVvL-3" value="" style="endArrow=classic;html=1;rounded=0;exitX=1;exitY=0.5;exitDx=0;exitDy=0;exitPerimeter=0;entryX=0;entryY=0.5;entryDx=0;entryDy=0;" parent="1" source="7sl2i-Y2lmcS3EekDP7u-1" target="_UhZb9Lw9bKP7ET5BVvL-14" edge="1">
          <mxGeometry width="50" height="50" relative="1" as="geometry">
            <mxPoint x="351" y="539" as="sourcePoint" />
            <mxPoint x="211" y="424.625" as="targetPoint" />
          </mxGeometry>
        </mxCell>
        <mxCell id="_UhZb9Lw9bKP7ET5BVvL-17" value="snow pipe" style="edgeLabel;html=1;align=center;verticalAlign=middle;resizable=0;points=[];" parent="_UhZb9Lw9bKP7ET5BVvL-3" vertex="1" connectable="0">
          <mxGeometry x="-0.049" relative="1" as="geometry">
            <mxPoint as="offset" />
          </mxGeometry>
        </mxCell>
        <mxCell id="_UhZb9Lw9bKP7ET5BVvL-14" value="table" style="rounded=0;whiteSpace=wrap;html=1;" parent="1" vertex="1">
          <mxGeometry x="233.5" y="403" width="65" height="40" as="geometry" />
        </mxCell>
        <mxCell id="_UhZb9Lw9bKP7ET5BVvL-18" value="S3 (Stage)" style="text;html=1;align=center;verticalAlign=middle;resizable=0;points=[];autosize=1;strokeColor=none;fillColor=none;" parent="1" vertex="1">
          <mxGeometry x="30" y="462" width="80" height="30" as="geometry" />
        </mxCell>
        <mxCell id="BuxqmLbNOe8SiWox82qU-2" value="" style="shape=image;verticalLabelPosition=bottom;labelBackgroundColor=default;verticalAlign=top;aspect=fixed;imageAspect=0;image=data:image/svg+xml,PHN2ZyB4bWxucz0iaHR0cDovL3d3dy53My5vcmcvMjAwMC9zdmciIGZpbGw9Im5vbmUiIHZpZXdCb3g9IjAgMCA0NTMgMTc1IiBoZWlnaHQ9IjE3NSIgd2lkdGg9IjQ1MyI+JiN4YTs8ZyBjbGlwLXBhdGg9InVybCgjY2xpcDApIj4mI3hhOzxwYXRoIGZpbGw9IiMwMTdDRUUiIGQ9Ik00LjE4NTg3IDE3Mi40NEw4Ni4zOTU5IDg4LjE2ODVDODYuOTEwOSA4Ny42NDA2IDg3LjAwOTYgODYuODI0NCA4Ni41ODAxIDg2LjIyNDlDODEuNTc5MiA3OS4yNDQyIDcyLjM1NjQgNzguMDM0MyA2OC45Mzc1IDczLjM0NDVDNTguODEwMSA1OS40NTIyIDU2LjI0MDUgNTEuNTg5MSA1MS44ODg3IDUyLjA3NjhDNTEuNTg0NyA1Mi4xMTA5IDUxLjMxMzcgNTIuMjc0NSA1MS4xMDAxIDUyLjQ5MzRMMjEuNDAxNSA4Mi45MzY3QzQuMzE2NDUgMTAwLjQ1IDEuODY2MzYgMTM5LjAxIDEuNDE3MDMgMTcxLjI5OEMxLjM5NjczIDE3Mi43NTcgMy4xNjY5IDE3My40ODQgNC4xODU4NyAxNzIuNDRaIi8+JiN4YTs8cGF0aCBmaWxsPSIjMDBBRDQ2IiBkPSJNMTcyLjQ0IDE3MC4zNTdMODguMTY4NSA4OC4xNDY2Qzg3LjY0MDYgODcuNjMxNiA4Ni44MjQ0IDg3LjUzMjggODYuMjI0OSA4Ny45NjIzQzc5LjI0NDMgOTIuOTYzMyA3OC4wMzQ0IDEwMi4xODYgNzMuMzQ0NSAxMDUuNjA1QzU5LjQ1MjIgMTE1LjczMiA1MS41ODkxIDExOC4zMDIgNTIuMDc2OCAxMjIuNjU0QzUyLjExMDkgMTIyLjk1OCA1Mi4yNzQ1IDEyMy4yMjkgNTIuNDkzNSAxMjMuNDQyTDgyLjkzNjcgMTUzLjE0MUMxMDAuNDUgMTcwLjIyNiAxMzkuMDEgMTcyLjY3NiAxNzEuMjk4IDE3My4xMjVDMTcyLjc1NyAxNzMuMTQ2IDE3My40ODQgMTcxLjM3NiAxNzIuNDQgMTcwLjM1N1oiLz4mI3hhOzxwYXRoIGZpbGw9IiMwNEQ2NTkiIGQ9Ik04Mi45MzYzIDE1My4xNDFDNzMuMzY5NiAxNDMuODA5IDY4LjkzMTIgMTI1LjM0NiA4Ny4yNzE1IDg3LjI3MjVDNTcuNDY0NyAxMDAuNTkzIDQ3LjAxOTQgMTE4LjEwMyA1Mi4xNTc4IDEyMy4xMTZMODIuOTM2MyAxNTMuMTQxWiIgY2xpcC1ydWxlPSJldmVub2RkIiBmaWxsLXJ1bGU9ImV2ZW5vZGQiLz4mI3hhOzxwYXRoIGZpbGw9IiMwMEM3RDQiIGQ9Ik0xNzAuMzU1IDIuMTA0NjJMODguMTQ1MSA4Ni4zNzZDODcuNjMwMSA4Ni45MDM5IDg3LjUzMTQgODcuNzIgODcuOTYwOSA4OC4zMTk1QzkyLjk2MTggOTUuMzAwMiAxMDIuMTg1IDk2LjUxMDEgMTA1LjYwMyAxMDEuMkMxMTUuNzMxIDExNS4wOTIgMTE4LjMwMSAxMjIuOTU1IDEyMi42NTIgMTIyLjQ2OEMxMjIuOTU2IDEyMi40MzQgMTIzLjIyNyAxMjIuMjcgMTIzLjQ0MSAxMjIuMDUxTDE1My4xMzkgOTEuNjA3N0MxNzAuMjI1IDc0LjA5NDIgMTcyLjY3NSAzNS41MzQ2IDE3My4xMjQgMy4yNDYyN0MxNzMuMTQ0IDEuNzg3MTkgMTcxLjM3NCAxLjA2MDEgMTcwLjM1NSAyLjEwNDYyWiIvPiYjeGE7PHBhdGggZmlsbD0iIzExRTFFRSIgZD0iTTE1My4xNCA5MS42MDc3QzE0My44MDcgMTAxLjE3NCAxMjUuMzQ0IDEwNS42MTMgODcuMjcwNSA4Ny4yNzI1QzEwMC41OTEgMTE3LjA3OSAxMTguMTAxIDEyNy41MjUgMTIzLjExNCAxMjIuMzg2TDE1My4xNCA5MS42MDc3WiIgY2xpcC1ydWxlPSJldmVub2RkIiBmaWxsLXJ1bGU9ImV2ZW5vZGQiLz4mI3hhOzxwYXRoIGZpbGw9IiNFNDM5MjEiIGQ9Ik0yLjEwMzE1IDQuMTg3MzNMODYuMzc0NSA4Ni4zOTczQzg2LjkwMjQgODYuOTEyMyA4Ny43MTg1IDg3LjAxMTEgODguMzE4MSA4Ni41ODE2Qzk1LjI5ODcgODEuNTgwNyA5Ni41MDg2IDcyLjM1NzkgMTAxLjE5OCA2OC45MzlDMTE1LjA5MSA1OC44MTE2IDEyMi45NTQgNTYuMjQyIDEyMi40NjYgNTEuODkwMkMxMjIuNDMyIDUxLjU4NjIgMTIyLjI2OCA1MS4zMTUyIDEyMi4wNSA1MS4xMDE2TDkxLjYwNjMgMjEuNDAzQzc0LjA5MjggNC4zMTc5MiAzNS41MzMxIDEuODY3ODMgMy4yNDQ4IDEuNDE4NUMxLjc4NTcyIDEuMzk4MTkgMS4wNTg2MyAzLjE2ODM2IDIuMTAzMTUgNC4xODczM1oiLz4mI3hhOzxwYXRoIGZpbGw9IiNGRjc1NTciIGQ9Ik05MS42MDU3IDIxLjQwMjVDMTAxLjE3MiAzMC43MzUyIDEwNS42MTEgNDkuMTk3NyA4Ny4yNzA1IDg3LjI3MTRDMTE3LjA3NyA3My45NTExIDEyNy41MjMgNTYuNDQwOCAxMjIuMzg0IDUxLjQyODFMOTEuNjA1NyAyMS40MDI1WiIgY2xpcC1ydWxlPSJldmVub2RkIiBmaWxsLXJ1bGU9ImV2ZW5vZGQiLz4mI3hhOzxwYXRoIGZpbGw9IiMwQ0I2RkYiIGQ9Ik0yMS40MDI1IDgyLjkzNjhDMzAuNzM1MiA3My4zNzAxIDQ5LjE5NzcgNjguOTMxNyA4Ny4yNzE0IDg3LjI3MkM3My45NTEgNTcuNDY1MiA1Ni40NDA4IDQ3LjAxOTkgNTEuNDI4MSA1Mi4xNTgzTDIxLjQwMjUgODIuOTM2OFoiIGNsaXAtcnVsZT0iZXZlbm9kZCIgZmlsbC1ydWxlPSJldmVub2RkIi8+JiN4YTs8Y2lyY2xlIGZpbGw9IiM0QTQ4NDgiIHRyYW5zZm9ybT0icm90YXRlKC0wLjcwOTM4NiA4Ny4yODM4IDg3LjI2MDYpIiByPSIzLjY3NjA2IiBjeT0iODcuMjYwNiIgY3g9Ijg3LjI4MzgiLz4mI3hhOzxwYXRoIGZpbGw9IiM1MTUwNEYiIGQ9Ik0xOTYuMDI5IDU3LjQyNzdDMTk1Ljg1NiA1Ny40Mjc3IDE5NS43MDQgNTcuMzYyNyAxOTUuNTc0IDU3LjIzMjZDMTk1LjQ0NCA1Ny4xMDI1IDE5NS4zNzkgNTYuOTUwNyAxOTUuMzc5IDU2Ljc3NzNDMTk1LjM3OSA1Ni42MDM4IDE5NS4zOSA1Ni40ODQ2IDE5NS40MTEgNTYuNDE5NkwyMDMuNDc3IDM1LjM3NzlDMjAzLjY1IDM0LjkwMDkgMjAzLjk5NyAzNC42NjI0IDIwNC41MTggMzQuNjYyNEgyMDYuNzI5QzIwNy4yNDkgMzQuNjYyNCAyMDcuNTk2IDM0LjkwMDkgMjA3Ljc3IDM1LjM3NzlMMjE1LjgwMyA1Ni40MTk2TDIxNS44NjggNTYuNzc3M0MyMTUuODY4IDU2Ljk1MDcgMjE1LjgwMyA1Ny4xMDI1IDIxNS42NzMgNTcuMjMyNkMyMTUuNTQzIDU3LjM2MjcgMjE1LjM5MSA1Ny40Mjc3IDIxNS4yMTcgNTcuNDI3N0gyMTMuNTU5QzIxMy4zMiA1Ny40Mjc3IDIxMy4xMzYgNTcuMzczNSAyMTMuMDA2IDU3LjI2NTFDMjEyLjg3NiA1Ny4xMzUgMjEyLjc4OSA1Ny4wMDQ5IDIxMi43NDYgNTYuODc0OUwyMTAuOTU3IDUyLjI1NjdIMjAwLjI5TDE5OC41MDEgNTYuODc0OUMxOTguNDU4IDU3LjAwNDkgMTk4LjM2IDU3LjEzNSAxOTguMjA4IDU3LjI2NTFDMTk4LjA3OCA1Ny4zNzM1IDE5Ny45MDUgNTcuNDI3NyAxOTcuNjg4IDU3LjQyNzdIMTk2LjAyOVpNMjEwLjAxNCA0OS40NTk5TDIwNS42MjMgMzcuOTE0NkwyMDEuMjMzIDQ5LjQ1OTlIMjEwLjAxNFpNMjE5LjcwMyA2My42MDY5QzIxOS40ODYgNjMuNjA2OSAyMTkuMzAyIDYzLjUzMSAyMTkuMTUgNjMuMzc5M0MyMTkuMDIgNjMuMjQ5MiAyMTguOTU1IDYzLjA3NTcgMjE4Ljk1NSA2Mi44NTg5VjQxLjI2NDNDMjE4Ljk1NSA0MS4wNDc1IDIxOS4wMiA0MC44NzQxIDIxOS4xNSA0MC43NDRDMjE5LjMwMiA0MC41OTIyIDIxOS40ODYgNDAuNTE2MyAyMTkuNzAzIDQwLjUxNjNIMjIxLjE5OUMyMjEuNDE2IDQwLjUxNjMgMjIxLjU4OSA0MC41OTIyIDIyMS43MTkgNDAuNzQ0QzIyMS44NzEgNDAuODc0MSAyMjEuOTQ3IDQxLjA0NzUgMjIxLjk0NyA0MS4yNjQzVjQyLjY5NTNDMjIzLjE2MSA0MS4wMjU4IDIyNC45MzkgNDAuMTkxMSAyMjcuMjggNDAuMTkxMUMyMjkuNTU3IDQwLjE5MTEgMjMxLjI1OSA0MC45MDY2IDIzMi4zODYgNDIuMzM3NkMyMzMuNTM1IDQzLjc2ODUgMjM0LjE1MyA0NS42MTE0IDIzNC4yNCA0Ny44NjYzQzIzNC4yNjIgNDguMTA0OCAyMzQuMjczIDQ4LjQ3MzQgMjM0LjI3MyA0OC45NzJDMjM0LjI3MyA0OS40NzA3IDIzNC4yNjIgNDkuODM5MyAyMzQuMjQgNTAuMDc3OEMyMzQuMTUzIDUyLjMxMDkgMjMzLjUzNSA1NC4xNTM5IDIzMi4zODYgNTUuNjA2NUMyMzEuMjM3IDU3LjAzNzUgMjI5LjUzNSA1Ny43NTMgMjI3LjI4IDU3Ljc1M0MyMjUuMDI2IDU3Ljc1MyAyMjMuMjY5IDU2LjkzOTkgMjIyLjAxMiA1NS4zMTM4VjYyLjg1ODlDMjIyLjAxMiA2My4wNzU3IDIyMS45NDcgNjMuMjQ5MiAyMjEuODE3IDYzLjM3OTNDMjIxLjY4NyA2My41MzEgMjIxLjUxMyA2My42MDY5IDIyMS4yOTYgNjMuNjA2OUgyMTkuNzAzWk0yMjYuNTk3IDU1LjExODdDMjI4LjEzNyA1NS4xMTg3IDIyOS4yNTMgNTQuNjQxNyAyMjkuOTQ3IDUzLjY4NzdDMjMwLjY2MyA1Mi43MzM3IDIzMS4wNTMgNTEuNDc2MiAyMzEuMTE4IDQ5LjkxNTJDMjMxLjE0IDQ5LjY5ODQgMjMxLjE1MSA0OS4zODQgMjMxLjE1MSA0OC45NzJDMjMxLjE1MSA0NC44NzQzIDIyOS42MzMgNDIuODI1NCAyMjYuNTk3IDQyLjgyNTRDMjI1LjEwMSA0Mi44MjU0IDIyMy45NzQgNDMuMzI0MSAyMjMuMjE1IDQ0LjMyMTRDMjIyLjQ3OCA0NS4yOTcgMjIyLjA3NyA0Ni40Njc4IDIyMi4wMTIgNDcuODMzOEwyMjEuOTc5IDQ5LjA2OTZMMjIyLjAxMiA1MC4zMzhDMjIyLjA1NSA1MS42MTcxIDIyMi40NjcgNTIuNzMzNyAyMjMuMjQ4IDUzLjY4NzdDMjI0LjAyOCA1NC42NDE3IDIyNS4xNDUgNTUuMTE4NyAyMjYuNTk3IDU1LjExODdaTTI0My4wMTEgNTcuNzUzQzI0MS45NDkgNTcuNzUzIDI0MC45NjMgNTcuNTM2MSAyNDAuMDUyIDU3LjEwMjVDMjM5LjE0MSA1Ni42Njg5IDIzOC40MTUgNTYuMDgzNSAyMzcuODczIDU1LjM0NjNDMjM3LjM1MyA1NC41ODc1IDIzNy4wOTIgNTMuNzUyOCAyMzcuMDkyIDUyLjg0MjFDMjM3LjA5MiA1MS40MTEyIDIzNy42NzggNTAuMjQwNCAyMzguODQ5IDQ5LjMyOThDMjQwLjA0MSA0OC4zOTc1IDI0MS42NDUgNDcuNzkwNCAyNDMuNjYyIDQ3LjUwODVMMjQ4LjUwOCA0Ni44MjU2VjQ1Ljg4MjRDMjQ4LjUwOCA0My42NzEgMjQ3LjIzOSA0Mi41NjUyIDI0NC43MDMgNDIuNTY1MkMyNDMuNzQ5IDQyLjU2NTIgMjQyLjk2OCA0Mi43NzEyIDI0Mi4zNjEgNDMuMTgzMUMyNDEuNzU0IDQzLjU3MzQgMjQxLjI5OSA0NC4wMzk1IDI0MC45OTUgNDQuNTgxNkMyNDAuOTMgNDQuNzc2NyAyNDAuODQzIDQ0LjkxNzYgMjQwLjczNSA0NS4wMDQ0QzI0MC42NDggNDUuMDkxMSAyNDAuNTE4IDQ1LjEzNDQgMjQwLjM0NSA0NS4xMzQ0SDIzOC45NDZDMjM4Ljc1MSA0NS4xMzQ0IDIzOC41NzggNDUuMDY5NCAyMzguNDI2IDQ0LjkzOTNDMjM4LjI5NiA0NC43ODc1IDIzOC4yMzEgNDQuNjE0MSAyMzguMjMxIDQ0LjQxOUMyMzguMjUyIDQzLjg5ODYgMjM4LjQ5MSA0My4zMTMyIDIzOC45NDYgNDIuNjYyOEMyMzkuNDIzIDQxLjk5MDcgMjQwLjE0OSA0MS40MTYxIDI0MS4xMjUgNDAuOTM5MUMyNDIuMTAxIDQwLjQ0MDQgMjQzLjMwNCA0MC4xOTExIDI0NC43MzUgNDAuMTkxMUMyNDcuMTYzIDQwLjE5MTEgMjQ4LjkwOSA0MC43NjU3IDI0OS45NzEgNDEuOTE0OEMyNTEuMDMzIDQzLjA0MjIgMjUxLjU2NSA0NC40NTE1IDI1MS41NjUgNDYuMTQyNlY1Ni42Nzk3QzI1MS41NjUgNTYuODk2NSAyNTEuNDg5IDU3LjA4MDggMjUxLjMzNyA1Ny4yMzI2QzI1MS4yMDcgNTcuMzYyNyAyNTEuMDMzIDU3LjQyNzcgMjUwLjgxNyA1Ny40Mjc3SDI0OS4zMjFDMjQ5LjEwNCA1Ny40Mjc3IDI0OC45MiA1Ny4zNjI3IDI0OC43NjggNTcuMjMyNkMyNDguNjM4IDU3LjA4MDggMjQ4LjU3MyA1Ni44OTY1IDI0OC41NzMgNTYuNjc5N1Y1NS4yODEzQzI0OC4wOTYgNTUuOTc1MSAyNDcuNDAyIDU2LjU2MDUgMjQ2LjQ5MSA1Ny4wMzc1QzI0NS41ODEgNTcuNTE0NSAyNDQuNDIxIDU3Ljc1MyAyNDMuMDExIDU3Ljc1M1pNMjQzLjY5NCA1NS4zMTM4QzI0NS4xMDQgNTUuMzEzOCAyNDYuMjUzIDU0Ljg1ODUgMjQ3LjE0MiA1My45NDc5QzI0OC4wNTIgNTMuMDE1NiAyNDguNTA4IDUxLjY4MjIgMjQ4LjUwOCA0OS45NDc3VjQ5LjAzNzFMMjQ0LjczNSA0OS41ODk5QzI0My4xOTYgNDkuODA2OCAyNDIuMDM2IDUwLjE3NTMgMjQxLjI1NSA1MC42OTU3QzI0MC40NzUgNTEuMTk0NCAyNDAuMDg0IDUxLjgzNCAyNDAuMDg0IDUyLjYxNDVDMjQwLjA4NCA1My40ODE3IDI0MC40NDIgNTQuMTUzOSAyNDEuMTU4IDU0LjYzMDhDMjQxLjg3MyA1NS4wODYyIDI0Mi43MTkgNTUuMzEzOCAyNDMuNjk0IDU1LjMxMzhaTTI2My4wNyA1Ny43NTNDMjYwLjc1IDU3Ljc1MyAyNTguOTI4IDU3LjEwMjUgMjU3LjYwNiA1NS44MDE2QzI1Ni4zMDUgNTQuNDc5MSAyNTUuNjExIDUyLjYzNjIgMjU1LjUyNCA1MC4yNzI5TDI1NS40OTIgNDguOTcyTDI1NS41MjQgNDcuNjcxMkMyNTUuNjExIDQ1LjMwNzkgMjU2LjMwNSA0My40NzU4IDI1Ny42MDYgNDIuMTc0OUMyNTguOTI4IDQwLjg1MjQgMjYwLjc1IDQwLjE5MTEgMjYzLjA3IDQwLjE5MTFDMjY0LjYzMSA0MC4xOTExIDI2NS45NTMgNDAuNDczIDI2Ny4wMzcgNDEuMDM2N0MyNjguMTIxIDQxLjYwMDQgMjY4LjkyNCA0Mi4yOTQyIDI2OS40NDQgNDMuMTE4MUMyNjkuOTg2IDQzLjk0MiAyNzAuMjc5IDQ0Ljc2NTkgMjcwLjMyMiA0NS41ODk3QzI3MC4zNDQgNDUuODA2NiAyNzAuMjc5IDQ1Ljk4IDI3MC4xMjcgNDYuMTEwMUMyNjkuOTc1IDQ2LjI0MDIgMjY5Ljc5MSA0Ni4zMDUyIDI2OS41NzQgNDYuMzA1MkgyNjguMDEzQzI2Ny43OTYgNDYuMzA1MiAyNjcuNjMzIDQ2LjI2MTkgMjY3LjUyNSA0Ni4xNzUxQzI2Ny40MTcgNDYuMDg4NCAyNjcuMzA4IDQ1LjkxNSAyNjcuMiA0NS42NTQ4QzI2Ni44MzEgNDQuNjE0MSAyNjYuMzExIDQzLjg3NjkgMjY1LjYzOSA0My40NDMzQzI2NC45NjcgNDIuOTg4IDI2NC4xMjEgNDIuNzYwMyAyNjMuMTAyIDQyLjc2MDNDMjYxLjc1OCA0Mi43NjAzIDI2MC42ODUgNDMuMTgzMSAyNTkuODgyIDQ0LjAyODdDMjU5LjEwMiA0NC44NTI2IDI1OC42NzkgNDYuMTIwOSAyNTguNjE0IDQ3LjgzMzhMMjU4LjU4MiA0OS4wMDQ2TDI1OC42MTQgNTAuMTEwM0MyNTguNjc5IDUxLjg0NDggMjU5LjEwMiA1My4xMjQgMjU5Ljg4MiA1My45NDc5QzI2MC42NjMgNTQuNzcxOCAyNjEuNzM2IDU1LjE4MzcgMjYzLjEwMiA1NS4xODM3QzI2NC4xMjEgNTUuMTgzNyAyNjQuOTY3IDU0Ljk2NjkgMjY1LjYzOSA1NC41MzMzQzI2Ni4zMTEgNTQuMDc4IDI2Ni44MzEgNTMuMzMgMjY3LjIgNTIuMjg5M0MyNjcuMzA4IDUyLjAyOTEgMjY3LjQxNyA1MS44NTU2IDI2Ny41MjUgNTEuNzY4OUMyNjcuNjMzIDUxLjY2MDUgMjY3Ljc5NiA1MS42MDYzIDI2OC4wMTMgNTEuNjA2M0gyNjkuNTc0QzI2OS43OTEgNTEuNjA2MyAyNjkuOTc1IDUxLjY4MjIgMjcwLjEyNyA1MS44MzRDMjcwLjI3OSA1MS45NjQgMjcwLjM0NCA1Mi4xMzc1IDI3MC4zMjIgNTIuMzU0M0MyNzAuMjc5IDUzLjE1NjUgMjY5Ljk4NiA1My45ODA0IDI2OS40NDQgNTQuODI2QzI2OC45MjQgNTUuNjQ5OSAyNjguMTIxIDU2LjM0MzcgMjY3LjAzNyA1Ni45MDc0QzI2NS45NzUgNTcuNDcxMSAyNjQuNjUyIDU3Ljc1MyAyNjMuMDcgNTcuNzUzWk0yNzQuOTY1IDU3LjQyNzdDMjc0Ljc0OCA1Ny40Mjc3IDI3NC41NjQgNTcuMzYyNyAyNzQuNDEyIDU3LjIzMjZDMjc0LjI4MiA1Ny4wODA4IDI3NC4yMTcgNTYuODk2NSAyNzQuMjE3IDU2LjY3OTdWMzUuMDg1MkMyNzQuMjE3IDM0Ljg2ODMgMjc0LjI4MiAzNC42OTQ5IDI3NC40MTIgMzQuNTY0OEMyNzQuNTY0IDM0LjQxMyAyNzQuNzQ4IDM0LjMzNzIgMjc0Ljk2NSAzNC4zMzcySDI3Ni41OTFDMjc2LjgwOCAzNC4zMzcyIDI3Ni45ODEgMzQuNDEzIDI3Ny4xMTEgMzQuNTY0OEMyNzcuMjYzIDM0LjY5NDkgMjc3LjMzOSAzNC44NjgzIDI3Ny4zMzkgMzUuMDg1MlY0Mi42NjI4QzI3Ny45NjggNDEuODYwNiAyNzguNzA1IDQxLjI1MzUgMjc5LjU1IDQwLjg0MTVDMjgwLjM5NiA0MC40MDc5IDI4MS40NDcgNDAuMTkxMSAyODIuNzA1IDQwLjE5MTFDMjg0Ljc4NiA0MC4xOTExIDI4Ni40MDIgNDAuODYzMiAyODcuNTUxIDQyLjIwNzVDMjg4LjcyMiA0My41MyAyODkuMzA3IDQ1LjI5NyAyODkuMzA3IDQ3LjUwODVWNTYuNjc5N0MyODkuMzA3IDU2Ljg5NjUgMjg5LjIzMSA1Ny4wODA4IDI4OS4wNzkgNTcuMjMyNkMyODguOTQ5IDU3LjM2MjcgMjg4Ljc3NiA1Ny40Mjc3IDI4OC41NTkgNTcuNDI3N0gyODYuOTMzQzI4Ni43MTYgNTcuNDI3NyAyODYuNTMyIDU3LjM2MjcgMjg2LjM4IDU3LjIzMjZDMjg2LjI1IDU3LjA4MDggMjg2LjE4NSA1Ni44OTY1IDI4Ni4xODUgNTYuNjc5N1Y0Ny42NzEyQzI4Ni4xODUgNDYuMTMxOCAyODUuODA1IDQ0LjkzOTMgMjg1LjA0NyA0NC4wOTM3QzI4NC4zMDkgNDMuMjQ4MiAyODMuMjM2IDQyLjgyNTQgMjgxLjgyNyA0Mi44MjU0QzI4MC40NjEgNDIuODI1NCAyNzkuMzY2IDQzLjI1OSAyNzguNTQyIDQ0LjEyNjNDMjc3Ljc0IDQ0Ljk3MTggMjc3LjMzOSA0Ni4xNTM1IDI3Ny4zMzkgNDcuNjcxMlY1Ni42Nzk3QzI3Ny4zMzkgNTYuODk2NSAyNzcuMjYzIDU3LjA4MDggMjc3LjExMSA1Ny4yMzI2QzI3Ni45ODEgNTcuMzYyNyAyNzYuODA4IDU3LjQyNzcgMjc2LjU5MSA1Ny40Mjc3SDI3NC45NjVaTTMwMC43NjcgNTcuNzUzQzI5OC41MzQgNTcuNzUzIDI5Ni43NDUgNTcuMDcgMjk1LjQwMSA1NS43MDQxQzI5NC4wNzggNTQuMzE2NSAyOTMuMzUyIDUyLjQzMDIgMjkzLjIyMiA1MC4wNDUzTDI5My4xODkgNDguOTM5NUwyOTMuMjIyIDQ3Ljg2NjNDMjkzLjM3MyA0NS41MjQ3IDI5NC4xMTEgNDMuNjYwMSAyOTUuNDMzIDQyLjI3MjVDMjk2Ljc3NyA0MC44ODQ5IDI5OC41NDQgNDAuMTkxMSAzMDAuNzM0IDQwLjE5MTFDMzAzLjE0MSA0MC4xOTExIDMwNS4wMDYgNDAuOTYwOCAzMDYuMzI4IDQyLjUwMDJDMzA3LjY1MSA0NC4wMTc5IDMwOC4zMTIgNDYuMDc3NiAzMDguMzEyIDQ4LjY3OTNWNDkuMjMyMkMzMDguMzEyIDQ5LjQ0OSAzMDguMjM2IDQ5LjYzMzMgMzA4LjA4NCA0OS43ODUxQzMwNy45NTQgNDkuOTE1MiAzMDcuNzgxIDQ5Ljk4MDIgMzA3LjU2NCA0OS45ODAySDI5Ni4zMTFWNTAuMjcyOUMyOTYuMzc2IDUxLjY4MjIgMjk2Ljc5OSA1Mi44ODU1IDI5Ny41OCA1My44ODI4QzI5OC4zODIgNTQuODU4NSAyOTkuNDMzIDU1LjM0NjMgMzAwLjczNCA1NS4zNDYzQzMwMS43MzIgNTUuMzQ2MyAzMDIuNTQ1IDU1LjE1MTIgMzAzLjE3MyA1NC43NjA5QzMwMy44MjQgNTQuMzQ5IDMwNC4zMDEgNTMuOTI2MiAzMDQuNjA0IDUzLjQ5MjZDMzA0LjggNTMuMjMyNCAzMDQuOTQgNTMuMDgwNiAzMDUuMDI3IDUzLjAzNzNDMzA1LjEzNiA1Mi45NzIyIDMwNS4zMiA1Mi45Mzk3IDMwNS41OCA1Mi45Mzk3SDMwNy4xNzRDMzA3LjM2OSA1Mi45Mzk3IDMwNy41MzEgNTIuOTkzOSAzMDcuNjYxIDUzLjEwMjNDMzA3Ljc5MiA1My4yMTA3IDMwNy44NTcgNTMuMzYyNSAzMDcuODU3IDUzLjU1NzZDMzA3Ljg1NyA1NC4wMzQ2IDMwNy41NTMgNTQuNjA5MiAzMDYuOTQ2IDU1LjI4MTNDMzA2LjM2MSA1NS45NTM0IDMwNS41MjYgNTYuNTM4OCAzMDQuNDQyIDU3LjAzNzVDMzAzLjM3OSA1Ny41MTQ1IDMwMi4xNTQgNTcuNzUzIDMwMC43NjcgNTcuNzUzWk0zMDUuMjIyIDQ3LjczNjJWNDcuNjM4NkMzMDUuMjIyIDQ2LjE0MjYgMzA0LjgxIDQ0LjkyODUgMzAzLjk4NiA0My45OTYyQzMwMy4xODQgNDMuMDQyMiAzMDIuMSA0Mi41NjUyIDMwMC43MzQgNDIuNTY1MkMyOTkuMzY4IDQyLjU2NTIgMjk4LjI4NCA0My4wNDIyIDI5Ny40ODIgNDMuOTk2MkMyOTYuNzAyIDQ0LjkyODUgMjk2LjMxMSA0Ni4xNDI2IDI5Ni4zMTEgNDcuNjM4NlY0Ny43MzYySDMwNS4yMjJaIi8+JiN4YTs8cGF0aCBmaWxsPSIjNTE1MDRGIiBkPSJNMTk1LjU3NCA1Ny4yMzI2TDE5NS4zOTcgNTcuNDA5NEgxOTUuMzk3TDE5NS41NzQgNTcuMjMyNlpNMTk1LjQxMSA1Ni40MTk2TDE5NS4xNzggNTYuMzNMMTk1LjE3NCA1Ni4zNDA1TDE5NS40MTEgNTYuNDE5NlpNMjAzLjQ3NyAzNS4zNzc5TDIwMy43MSAzNS40NjczTDIwMy43MTIgMzUuNDYzM0wyMDMuNDc3IDM1LjM3NzlaTTIwNy43NyAzNS4zNzc5TDIwNy41MzUgMzUuNDYzM0wyMDcuNTM2IDM1LjQ2N0wyMDcuNzcgMzUuMzc3OVpNMjE1LjgwMyA1Ni40MTk2TDIxNi4wNDkgNTYuMzc0OEMyMTYuMDQ2IDU2LjM1OTcgMjE2LjA0MiA1Ni4zNDQ4IDIxNi4wMzYgNTYuMzMwNEwyMTUuODAzIDU2LjQxOTZaTTIxNS44NjggNTYuNzc3M0gyMTYuMTE4QzIxNi4xMTggNTYuNzYyMyAyMTYuMTE2IDU2Ljc0NzMgMjE2LjExNCA1Ni43MzI2TDIxNS44NjggNTYuNzc3M1pNMjE1LjY3MyA1Ny4yMzI2TDIxNS44NDkgNTcuNDA5NEwyMTUuNjczIDU3LjIzMjZaTTIxMy4wMDYgNTcuMjY1MUwyMTIuODI5IDU3LjQ0MTlDMjEyLjgzNCA1Ny40NDcyIDIxMi44NCA1Ny40NTIzIDIxMi44NDYgNTcuNDU3MkwyMTMuMDA2IDU3LjI2NTFaTTIxMi43NDYgNTYuODc0OUwyMTIuOTgzIDU2Ljc5NTdMMjEyLjk3OSA1Ni43ODQ2TDIxMi43NDYgNTYuODc0OVpNMjEwLjk1NyA1Mi4yNTY3TDIxMS4xOSA1Mi4xNjY1QzIxMS4xNTMgNTIuMDcwMiAyMTEuMDYgNTIuMDA2NyAyMTAuOTU3IDUyLjAwNjdWNTIuMjU2N1pNMjAwLjI5IDUyLjI1NjdWNTIuMDA2N0MyMDAuMTg3IDUyLjAwNjcgMjAwLjA5NCA1Mi4wNzAyIDIwMC4wNTcgNTIuMTY2NUwyMDAuMjkgNTIuMjU2N1pNMTk4LjUwMSA1Ni44NzQ5TDE5OC4yNjggNTYuNzg0NUwxOTguMjY0IDU2Ljc5NThMMTk4LjUwMSA1Ni44NzQ5Wk0xOTguMjA4IDU3LjI2NTFMMTk4LjM2OCA1Ny40NTcyTDE5OC4zNzEgNTcuNDU0OUwxOTguMjA4IDU3LjI2NTFaTTIxMC4wMTQgNDkuNDU5OVY0OS43MDk5QzIxMC4wOTYgNDkuNzA5OSAyMTAuMTczIDQ5LjY2OTUgMjEwLjIyIDQ5LjYwMThDMjEwLjI2NiA0OS41MzQxIDIxMC4yNzcgNDkuNDQ3OCAyMTAuMjQ4IDQ5LjM3MUwyMTAuMDE0IDQ5LjQ1OTlaTTIwNS42MjMgMzcuOTE0NkwyMDUuODU3IDM3LjgyNTdDMjA1LjgyIDM3LjcyODcgMjA1LjcyNyAzNy42NjQ2IDIwNS42MjMgMzcuNjY0NkMyMDUuNTIgMzcuNjY0NiAyMDUuNDI3IDM3LjcyODcgMjA1LjM5IDM3LjgyNTdMMjA1LjYyMyAzNy45MTQ2Wk0yMDEuMjMzIDQ5LjQ1OTlMMjAwLjk5OSA0OS4zNzFDMjAwLjk3IDQ5LjQ0NzggMjAwLjk4IDQ5LjUzNDEgMjAxLjAyNyA0OS42MDE4QzIwMS4wNzQgNDkuNjY5NSAyMDEuMTUxIDQ5LjcwOTkgMjAxLjIzMyA0OS43MDk5VjQ5LjQ1OTlaTTE5Ni4wMjkgNTcuMTc3N0MxOTUuOTI3IDU3LjE3NzcgMTk1LjgzNyA1Ny4xNDIyIDE5NS43NTEgNTcuMDU1OEwxOTUuMzk3IDU3LjQwOTRDMTk1LjU3MSA1Ny41ODMyIDE5NS43ODUgNTcuNjc3NyAxOTYuMDI5IDU3LjY3NzdWNTcuMTc3N1pNMTk1Ljc1MSA1Ny4wNTU4QzE5NS42NjUgNTYuOTY5NSAxOTUuNjI5IDU2Ljg4MDEgMTk1LjYyOSA1Ni43NzczSDE5NS4xMjlDMTk1LjEyOSA1Ny4wMjE0IDE5NS4yMjMgNTcuMjM1NiAxOTUuMzk3IDU3LjQwOTRMMTk1Ljc1MSA1Ny4wNTU4Wk0xOTUuNjI5IDU2Ljc3NzNDMTk1LjYyOSA1Ni42MDE5IDE5NS42NDEgNTYuNTIwNiAxOTUuNjQ5IDU2LjQ5ODZMMTk1LjE3NCA1Ni4zNDA1QzE5NS4xMzggNTYuNDQ4NiAxOTUuMTI5IDU2LjYwNTggMTk1LjEyOSA1Ni43NzczSDE5NS42MjlaTTE5NS42NDUgNTYuNTA5TDIwMy43MSAzNS40NjczTDIwMy4yNDMgMzUuMjg4NEwxOTUuMTc4IDU2LjMzMDFMMTk1LjY0NSA1Ni41MDlaTTIwMy43MTIgMzUuNDYzM0MyMDMuNzg1IDM1LjI2MzUgMjAzLjg4NiAzNS4xMzE0IDIwNC4wMDkgMzUuMDQ3M0MyMDQuMTMyIDM0Ljk2MjggMjA0LjI5NiAzNC45MTI0IDIwNC41MTggMzQuOTEyNFYzNC40MTI0QzIwNC4yMTkgMzQuNDEyNCAyMDMuOTUgMzQuNDgxMiAyMDMuNzI2IDM0LjYzNTJDMjAzLjUwMSAzNC43ODk2IDIwMy4zNDMgMzUuMDE1MyAyMDMuMjQyIDM1LjI5MjRMMjAzLjcxMiAzNS40NjMzWk0yMDQuNTE4IDM0LjkxMjRIMjA2LjcyOVYzNC40MTI0SDIwNC41MThWMzQuOTEyNFpNMjA2LjcyOSAzNC45MTI0QzIwNi45NTEgMzQuOTEyNCAyMDcuMTE1IDM0Ljk2MjggMjA3LjIzOCAzNS4wNDczQzIwNy4zNiAzNS4xMzE0IDIwNy40NjIgMzUuMjYzNSAyMDcuNTM1IDM1LjQ2MzNMMjA4LjAwNSAzNS4yOTI0QzIwNy45MDQgMzUuMDE1MyAyMDcuNzQ2IDM0Ljc4OTYgMjA3LjUyMSAzNC42MzUyQzIwNy4yOTcgMzQuNDgxMiAyMDcuMDI4IDM0LjQxMjQgMjA2LjcyOSAzNC40MTI0VjM0LjkxMjRaTTIwNy41MzYgMzUuNDY3TDIxNS41NjkgNTYuNTA4N0wyMTYuMDM2IDU2LjMzMDRMMjA4LjAwMyAzNS4yODg3TDIwNy41MzYgMzUuNDY3Wk0yMTUuNTU3IDU2LjQ2NDNMMjE1LjYyMiA1Ni44MjJMMjE2LjExNCA1Ni43MzI2TDIxNi4wNDkgNTYuMzc0OEwyMTUuNTU3IDU2LjQ2NDNaTTIxNS42MTggNTYuNzc3M0MyMTUuNjE4IDU2Ljg4MDEgMjE1LjU4MiA1Ni45Njk1IDIxNS40OTYgNTcuMDU1OEwyMTUuODQ5IDU3LjQwOTRDMjE2LjAyMyA1Ny4yMzU2IDIxNi4xMTggNTcuMDIxNCAyMTYuMTE4IDU2Ljc3NzNIMjE1LjYxOFpNMjE1LjQ5NiA1Ny4wNTU4QzIxNS40MSA1Ny4xNDIyIDIxNS4zMiA1Ny4xNzc3IDIxNS4yMTcgNTcuMTc3N1Y1Ny42Nzc3QzIxNS40NjEgNTcuNjc3NyAyMTUuNjc2IDU3LjU4MzIgMjE1Ljg0OSA1Ny40MDk0TDIxNS40OTYgNTcuMDU1OFpNMjE1LjIxNyA1Ny4xNzc3SDIxMy41NTlWNTcuNjc3N0gyMTUuMjE3VjU3LjE3NzdaTTIxMy41NTkgNTcuMTc3N0MyMTMuMzU1IDU3LjE3NzcgMjEzLjIzNiA1Ny4xMzEzIDIxMy4xNjYgNTcuMDczMUwyMTIuODQ2IDU3LjQ1NzJDMjEzLjAzNiA1Ny42MTU4IDIxMy4yODUgNTcuNjc3NyAyMTMuNTU5IDU3LjY3NzdWNTcuMTc3N1pNMjEzLjE4MyA1Ny4wODgzQzIxMy4wNzEgNTYuOTc2OCAyMTMuMDEgNTYuODc4NyAyMTIuOTgzIDU2Ljc5NThMMjEyLjUwOSA1Ni45NTM5QzIxMi41NjggNTcuMTMxMiAyMTIuNjggNTcuMjkzMyAyMTIuODI5IDU3LjQ0MTlMMjEzLjE4MyA1Ny4wODgzWk0yMTIuOTc5IDU2Ljc4NDZMMjExLjE5IDUyLjE2NjVMMjEwLjcyNCA1Mi4zNDdMMjEyLjUxMyA1Ni45NjUyTDIxMi45NzkgNTYuNzg0NlpNMjEwLjk1NyA1Mi4wMDY3SDIwMC4yOVY1Mi41MDY3SDIxMC45NTdWNTIuMDA2N1pNMjAwLjA1NyA1Mi4xNjY1TDE5OC4yNjggNTYuNzg0NkwxOTguNzM0IDU2Ljk2NTJMMjAwLjUyMyA1Mi4zNDdMMjAwLjA1NyA1Mi4xNjY1Wk0xOTguMjY0IDU2Ljc5NThDMTk4LjI0IDU2Ljg2NzYgMTk4LjE3OCA1Ni45NjIgMTk4LjA0NiA1Ny4wNzUzTDE5OC4zNzEgNTcuNDU0OUMxOTguNTQyIDU3LjMwOCAxOTguNjc1IDU3LjE0MjMgMTk4LjczOCA1Ni45NTM5TDE5OC4yNjQgNTYuNzk1OFpNMTk4LjA0OCA1Ny4wNzMxQzE5Ny45NzUgNTcuMTM0NiAxOTcuODYzIDU3LjE3NzcgMTk3LjY4OCA1Ny4xNzc3VjU3LjY3NzdDMTk3Ljk0NyA1Ny42Nzc3IDE5OC4xODIgNTcuNjEyNSAxOTguMzY4IDU3LjQ1NzJMMTk4LjA0OCA1Ny4wNzMxWk0xOTcuNjg4IDU3LjE3NzdIMTk2LjAyOVY1Ny42Nzc3SDE5Ny42ODhWNTcuMTc3N1pNMjEwLjI0OCA0OS4zNzFMMjA1Ljg1NyAzNy44MjU3TDIwNS4zOSAzOC4wMDM0TDIwOS43OCA0OS41NDg3TDIxMC4yNDggNDkuMzcxWk0yMDUuMzkgMzcuODI1N0wyMDAuOTk5IDQ5LjM3MUwyMDEuNDY3IDQ5LjU0ODdMMjA1Ljg1NyAzOC4wMDM0TDIwNS4zOSAzNy44MjU3Wk0yMDEuMjMzIDQ5LjcwOTlIMjEwLjAxNFY0OS4yMDk5SDIwMS4yMzNWNDkuNzA5OVpNMjE5LjE1IDYzLjM3OTJMMjE4Ljk3MyA2My41NTZMMjE5LjE1IDYzLjM3OTJaTTIxOS4xNSA0MC43NDRMMjE5LjMyNyA0MC45MjA4TDIxOS4xNSA0MC43NDRaTTIyMS43MTkgNDAuNzQ0TDIyMS41MjkgNDAuOTA2N0MyMjEuNTM4IDQwLjkxNjQgMjIxLjU0NyA0MC45MjU1IDIyMS41NTYgNDAuOTMzOEwyMjEuNzE5IDQwLjc0NFpNMjIxLjk0NyA0Mi42OTUzSDIyMS42OTdDMjIxLjY5NyA0Mi44MDM2IDIyMS43NjcgNDIuODk5NiAyMjEuODcgNDIuOTMzQzIyMS45NzMgNDIuOTY2NSAyMjIuMDg1IDQyLjkyOTkgMjIyLjE0OSA0Mi44NDIzTDIyMS45NDcgNDIuNjk1M1pNMjMyLjM4NiA0Mi4zMzc2TDIzMi4xOSA0Mi40OTIzTDIzMi4xOTEgNDIuNDk0MUwyMzIuMzg2IDQyLjMzNzZaTTIzNC4yNCA0Ny44NjYzTDIzMy45OSA0Ny44NzU5TDIzMy45OTEgNDcuODg4OUwyMzQuMjQgNDcuODY2M1pNMjM0LjI0IDUwLjA3NzhMMjMzLjk5MSA1MC4wNTUxTDIzMy45OSA1MC4wNjgxTDIzNC4yNCA1MC4wNzc4Wk0yMzIuMzg2IDU1LjYwNjVMMjMyLjU4MSA1NS43NjNMMjMyLjU4MiA1NS43NjE2TDIzMi4zODYgNTUuNjA2NVpNMjIyLjAxMiA1NS4zMTM4TDIyMi4yMSA1NS4xNjA5QzIyMi4xNDQgNTUuMDc2MyAyMjIuMDMyIDU1LjA0MjcgMjIxLjkzMSA1NS4wNzcyQzIyMS44MyA1NS4xMTE4IDIyMS43NjIgNTUuMjA2OSAyMjEuNzYyIDU1LjMxMzhIMjIyLjAxMlpNMjIxLjgxNyA2My4zNzkyTDIyMS42NCA2My4yMDI1QzIyMS42MzUgNjMuMjA3IDIyMS42MzEgNjMuMjExNyAyMjEuNjI3IDYzLjIxNjZMMjIxLjgxNyA2My4zNzkyWk0yMjkuOTQ3IDUzLjY4NzdMMjI5Ljc0NyA1My41Mzc3TDIyOS43NDUgNTMuNTQwN0wyMjkuOTQ3IDUzLjY4NzdaTTIzMS4xMTggNDkuOTE1MkwyMzAuODY5IDQ5Ljg5MDNDMjMwLjg2OSA0OS44OTUxIDIzMC44NjggNDkuODk5OSAyMzAuODY4IDQ5LjkwNDhMMjMxLjExOCA0OS45MTUyWk0yMjMuMjE1IDQ0LjMyMTRMMjIzLjAxNiA0NC4xN0wyMjMuMDE2IDQ0LjE3MDdMMjIzLjIxNSA0NC4zMjE0Wk0yMjIuMDEyIDQ3LjgzMzhMMjIxLjc2MiA0Ny44MjE5TDIyMS43NjIgNDcuODI3MkwyMjIuMDEyIDQ3LjgzMzhaTTIyMS45NzkgNDkuMDY5NkwyMjEuNzI5IDQ5LjA2M0wyMjEuNzI5IDQ5LjA3NkwyMjEuOTc5IDQ5LjA2OTZaTTIyMi4wMTIgNTAuMzM3OUwyMjEuNzYyIDUwLjM0NDRMMjIxLjc2MiA1MC4zNDY0TDIyMi4wMTIgNTAuMzM3OVpNMjIzLjI0OCA1My42ODc3TDIyMy40NDEgNTMuNTI5NEwyMjMuMjQ4IDUzLjY4NzdaTTIxOS43MDMgNjMuMzU2OUMyMTkuNTUyIDYzLjM1NjkgMjE5LjQzMSA2My4zMDY4IDIxOS4zMjcgNjMuMjAyNUwyMTguOTczIDYzLjU1NkMyMTkuMTcyIDYzLjc1NTIgMjE5LjQyIDYzLjg1NjkgMjE5LjcwMyA2My44NTY5VjYzLjM1NjlaTTIxOS4zMjcgNjMuMjAyNUMyMTkuMjUyIDYzLjEyNzYgMjE5LjIwNSA2My4wMjIxIDIxOS4yMDUgNjIuODU4OUgyMTguNzA1QzIxOC43MDUgNjMuMTI5MyAyMTguNzg4IDYzLjM3MDggMjE4Ljk3MyA2My41NTZMMjE5LjMyNyA2My4yMDI1Wk0yMTkuMjA1IDYyLjg1ODlWNDEuMjY0M0gyMTguNzA1VjYyLjg1ODlIMjE5LjIwNVpNMjE5LjIwNSA0MS4yNjQzQzIxOS4yMDUgNDEuMTAxMSAyMTkuMjUyIDQwLjk5NTcgMjE5LjMyNyA0MC45MjA4TDIxOC45NzMgNDAuNTY3MkMyMTguNzg4IDQwLjc1MjUgMjE4LjcwNSA0MC45OTQgMjE4LjcwNSA0MS4yNjQzSDIxOS4yMDVaTTIxOS4zMjcgNDAuOTIwOEMyMTkuNDMxIDQwLjgxNjQgMjE5LjU1MiA0MC43NjYzIDIxOS43MDMgNDAuNzY2M1Y0MC4yNjYzQzIxOS40MiA0MC4yNjYzIDIxOS4xNzIgNDAuMzY4IDIxOC45NzMgNDAuNTY3MkwyMTkuMzI3IDQwLjkyMDhaTTIxOS43MDMgNDAuNzY2M0gyMjEuMTk5VjQwLjI2NjNIMjE5LjcwM1Y0MC43NjYzWk0yMjEuMTk5IDQwLjc2NjNDMjIxLjM1IDQwLjc2NjMgMjIxLjQ1MSA0MC44MTU0IDIyMS41MjkgNDAuOTA2N0wyMjEuOTA5IDQwLjU4MTNDMjIxLjcyNyA0MC4zNjkgMjIxLjQ4MiA0MC4yNjYzIDIyMS4xOTkgNDAuMjY2M1Y0MC43NjYzWk0yMjEuNTU2IDQwLjkzMzhDMjIxLjY0OCA0MS4wMTIgMjIxLjY5NyA0MS4xMTM1IDIyMS42OTcgNDEuMjY0M0gyMjIuMTk3QzIyMi4xOTcgNDAuOTgxNSAyMjIuMDk0IDQwLjczNjEgMjIxLjg4MiA0MC41NTQyTDIyMS41NTYgNDAuOTMzOFpNMjIxLjY5NyA0MS4yNjQzVjQyLjY5NTNIMjIyLjE5N1Y0MS4yNjQzSDIyMS42OTdaTTIyMi4xNDkgNDIuODQyM0MyMjMuMzA5IDQxLjI0NjkgMjI1LjAwNiA0MC40NDExIDIyNy4yOCA0MC40NDExVjM5Ljk0MTFDMjI0Ljg3MSAzOS45NDExIDIyMy4wMTMgNDAuODA0NyAyMjEuNzQ1IDQyLjU0ODNMMjIyLjE0OSA0Mi44NDIzWk0yMjcuMjggNDAuNDQxMUMyMjkuNTAxIDQwLjQ0MTEgMjMxLjEyMiA0MS4xMzYzIDIzMi4xOSA0Mi40OTIzTDIzMi41ODMgNDIuMTgyOEMyMzEuMzk2IDQwLjY3NjkgMjI5LjYxMyAzOS45NDExIDIyNy4yOCAzOS45NDExVjQwLjQ0MTFaTTIzMi4xOTEgNDIuNDk0MUMyMzMuMyA0My44NzQ0IDIzMy45MDUgNDUuNjYyMSAyMzMuOTkgNDcuODc1OUwyMzQuNDkgNDcuODU2N0MyMzQuNDAyIDQ1LjU2MDggMjMzLjc3MSA0My42NjI2IDIzMi41ODEgNDIuMTgxTDIzMi4xOTEgNDIuNDk0MVpNMjMzLjk5MSA0Ny44ODg5QzIzNC4wMTIgNDguMTE1NSAyMzQuMDIzIDQ4LjQ3NDcgMjM0LjAyMyA0OC45NzJIMjM0LjUyM0MyMzQuNTIzIDQ4LjQ3MiAyMzQuNTEyIDQ4LjA5NCAyMzQuNDg5IDQ3Ljg0MzZMMjMzLjk5MSA0Ny44ODg5Wk0yMzQuMDIzIDQ4Ljk3MkMyMzQuMDIzIDQ5LjQ2OTQgMjM0LjAxMiA0OS44Mjg1IDIzMy45OTEgNTAuMDU1MUwyMzQuNDg5IDUwLjEwMDRDMjM0LjUxMiA0OS44NSAyMzQuNTIzIDQ5LjQ3MiAyMzQuNTIzIDQ4Ljk3MkgyMzQuMDIzWk0yMzMuOTkgNTAuMDY4MUMyMzMuOTA1IDUyLjI1OTUgMjMzLjMgNTQuMDQ4MyAyMzIuMTkgNTUuNDUxNEwyMzIuNTgyIDU1Ljc2MTZDMjMzLjc3MSA1NC4yNTk0IDIzNC40MDIgNTIuMzYyNCAyMzQuNDkgNTAuMDg3NUwyMzMuOTkgNTAuMDY4MVpNMjMyLjE5MSA1NS40NUMyMzEuMTAxIDU2LjgwODQgMjI5LjQ3OSA1Ny41MDMgMjI3LjI4IDU3LjUwM1Y1OC4wMDNDMjI5LjU5MiA1OC4wMDMgMjMxLjM3NCA1Ny4yNjY1IDIzMi41ODEgNTUuNzYzTDIzMi4xOTEgNTUuNDVaTTIyNy4yOCA1Ny41MDNDMjI1LjA5NCA1Ny41MDMgMjIzLjQxNSA1Ni43MTkyIDIyMi4yMSA1NS4xNjA5TDIyMS44MTQgNTUuNDY2N0MyMjMuMTI0IDU3LjE2MDYgMjI0Ljk1NyA1OC4wMDMgMjI3LjI4IDU4LjAwM1Y1Ny41MDNaTTIyMS43NjIgNTUuMzEzOFY2Mi44NTg5SDIyMi4yNjJWNTUuMzEzOEgyMjEuNzYyWk0yMjEuNzYyIDYyLjg1ODlDMjIxLjc2MiA2My4wMjIxIDIyMS43MTUgNjMuMTI3NiAyMjEuNjQgNjMuMjAyNUwyMjEuOTk0IDYzLjU1NkMyMjIuMTc5IDYzLjM3MDggMjIyLjI2MiA2My4xMjkzIDIyMi4yNjIgNjIuODU4OUgyMjEuNzYyWk0yMjEuNjI3IDYzLjIxNjZDMjIxLjU0OSA2My4zMDc4IDIyMS40NDcgNjMuMzU2OSAyMjEuMjk2IDYzLjM1NjlWNjMuODU2OUMyMjEuNTc5IDYzLjg1NjkgMjIxLjgyNSA2My43NTQyIDIyMi4wMDcgNjMuNTQxOUwyMjEuNjI3IDYzLjIxNjZaTTIyMS4yOTYgNjMuMzU2OUgyMTkuNzAzVjYzLjg1NjlIMjIxLjI5NlY2My4zNTY5Wk0yMjYuNTk3IDU1LjM2ODdDMjI4LjE5IDU1LjM2ODcgMjI5LjM5NSA1NC44NzI0IDIzMC4xNDkgNTMuODM0OEwyMjkuNzQ1IDUzLjU0MDdDMjI5LjExMiA1NC40MTEgMjI4LjA4NCA1NC44Njg3IDIyNi41OTcgNTQuODY4N1Y1NS4zNjg3Wk0yMzAuMTQ3IDUzLjgzNzdDMjMwLjkwMSA1Mi44MzI1IDIzMS4zMDEgNTEuNTIxNiAyMzEuMzY4IDQ5LjkyNTZMMjMwLjg2OCA0OS45MDQ4QzIzMC44MDUgNTEuNDMwOCAyMzAuNDI0IDUyLjYzNSAyMjkuNzQ3IDUzLjUzNzdMMjMwLjE0NyA1My44Mzc3Wk0yMzEuMzY3IDQ5Ljk0QzIzMS4zOSA0OS43MTA2IDIzMS40MDEgNDkuMzg2NCAyMzEuNDAxIDQ4Ljk3MkgyMzAuOTAxQzIzMC45MDEgNDkuMzgxNiAyMzAuODkgNDkuNjg2MSAyMzAuODY5IDQ5Ljg5MDNMMjMxLjM2NyA0OS45NFpNMjMxLjQwMSA0OC45NzJDMjMxLjQwMSA0Ni44OTk2IDIzMS4wMTggNDUuMjk5OCAyMzAuMjEzIDQ0LjIxMzJDMjI5LjM5OCA0My4xMTI2IDIyOC4xNzcgNDIuNTc1NCAyMjYuNTk3IDQyLjU3NTRWNDMuMDc1NEMyMjguMDUzIDQzLjA3NTQgMjI5LjEwOSA0My41NjI2IDIyOS44MTEgNDQuNTEwOUMyMzAuNTI0IDQ1LjQ3MzEgMjMwLjkwMSA0Ni45NDY3IDIzMC45MDEgNDguOTcySDIzMS40MDFaTTIyNi41OTcgNDIuNTc1NEMyMjUuMDQgNDIuNTc1NCAyMjMuODMyIDQzLjA5ODIgMjIzLjAxNiA0NC4xN0wyMjMuNDE0IDQ0LjQ3MjhDMjI0LjExNiA0My41NDk5IDIyNS4xNjMgNDMuMDc1NCAyMjYuNTk3IDQzLjA3NTRWNDIuNTc1NFpNMjIzLjAxNiA0NC4xNzA3QzIyMi4yNDUgNDUuMTkxMiAyMjEuODI5IDQ2LjQxMTkgMjIxLjc2MiA0Ny44MjE5TDIyMi4yNjIgNDcuODQ1N0MyMjIuMzI1IDQ2LjUyMzggMjIyLjcxMSA0NS40MDI5IDIyMy40MTUgNDQuNDcyMUwyMjMuMDE2IDQ0LjE3MDdaTTIyMS43NjIgNDcuODI3MkwyMjEuNzI5IDQ5LjA2M0wyMjIuMjI5IDQ5LjA3NjJMMjIyLjI2MiA0Ny44NDAzTDIyMS43NjIgNDcuODI3MlpNMjIxLjcyOSA0OS4wNzZMMjIxLjc2MiA1MC4zNDQ0TDIyMi4yNjIgNTAuMzMxNUwyMjIuMjI5IDQ5LjA2MzJMMjIxLjcyOSA0OS4wNzZaTTIyMS43NjIgNTAuMzQ2NEMyMjEuODA3IDUxLjY3ODEgMjIyLjIzOCA1Mi44NDc5IDIyMy4wNTQgNTMuODQ2TDIyMy40NDEgNTMuNTI5NEMyMjIuNjk3IDUyLjYxOTYgMjIyLjMwMyA1MS41NTYyIDIyMi4yNjIgNTAuMzI5NUwyMjEuNzYyIDUwLjM0NjRaTTIyMy4wNTQgNTMuODQ2QzIyMy44OTEgNTQuODY4NyAyMjUuMDg1IDU1LjM2ODcgMjI2LjU5NyA1NS4zNjg3VjU0Ljg2ODdDMjI1LjIwNSA1NC44Njg3IDIyNC4xNjYgNTQuNDE0NyAyMjMuNDQxIDUzLjUyOTRMMjIzLjA1NCA1My44NDZaTTI0MC4wNTIgNTcuMTAyNUwyNDAuMTU5IDU2Ljg3NjhMMjQwLjA1MiA1Ny4xMDI1Wk0yMzcuODczIDU1LjM0NjNMMjM3LjY2NyA1NS40ODc4TDIzNy42NzIgNTUuNDk0NEwyMzcuODczIDU1LjM0NjNaTTIzOC44NDkgNDkuMzI5OEwyMzkuMDAyIDQ5LjUyNzFMMjM5LjAwMyA0OS41MjY3TDIzOC44NDkgNDkuMzI5OFpNMjQzLjY2MiA0Ny41MDg1TDI0My42OTYgNDcuNzU2MUwyNDMuNjk3IDQ3Ljc1NjFMMjQzLjY2MiA0Ny41MDg1Wk0yNDguNTA4IDQ2LjgyNTZMMjQ4LjU0MyA0Ny4wNzMxQzI0OC42NjYgNDcuMDU1NyAyNDguNzU4IDQ2Ljk1MDIgMjQ4Ljc1OCA0Ni44MjU2SDI0OC41MDhaTTI0Mi4zNjEgNDMuMTgzMUwyNDIuNDk2IDQzLjM5MzVMMjQyLjUwMSA0My4zOUwyNDIuMzYxIDQzLjE4MzFaTTI0MC45OTUgNDQuNTgxNkwyNDAuNzc3IDQ0LjQ1OTRDMjQwLjc2OSA0NC40NzMxIDI0MC43NjMgNDQuNDg3NiAyNDAuNzU4IDQ0LjUwMjVMMjQwLjk5NSA0NC41ODE2Wk0yNDAuNzM1IDQ1LjAwNDRMMjQwLjU3OSA0NC44MDkxQzI0MC41NzEgNDQuODE0OSAyNDAuNTY1IDQ0LjgyMTEgMjQwLjU1OCA0NC44Mjc2TDI0MC43MzUgNDUuMDA0NFpNMjM4LjQyNiA0NC45MzkzTDIzOC4yMzYgNDUuMTAyQzIzOC4yNDQgNDUuMTExNyAyMzguMjUzIDQ1LjEyMDggMjM4LjI2MyA0NS4xMjkxTDIzOC40MjYgNDQuOTM5M1pNMjM4LjIzMSA0NC40MTlMMjM3Ljk4MSA0NC40MDg1VjQ0LjQxOUgyMzguMjMxWk0yMzguOTQ2IDQyLjY2MjhMMjM4Ljc0MiA0Mi41MTgxTDIzOC43NDEgNDIuNTE5NEwyMzguOTQ2IDQyLjY2MjhaTTI0MS4xMjUgNDAuOTM5MUwyNDEuMjM1IDQxLjE2MzdMMjQxLjIzOSA0MS4xNjE3TDI0MS4xMjUgNDAuOTM5MVpNMjQ5Ljk3MSA0MS45MTQ4TDI0OS43ODggNDIuMDg0NUwyNDkuNzg5IDQyLjA4NjJMMjQ5Ljk3MSA0MS45MTQ4Wk0yNTEuMzM3IDU3LjIzMjZMMjUxLjUxNCA1Ny40MDk0TDI1MS4zMzcgNTcuMjMyNlpNMjQ4Ljc2OCA1Ny4yMzI2TDI0OC41NzggNTcuMzk1M0MyNDguNTg2IDU3LjQwNSAyNDguNTk1IDU3LjQxNDEgMjQ4LjYwNSA1Ny40MjI0TDI0OC43NjggNTcuMjMyNlpNMjQ4LjU3MyA1NS4yODEzSDI0OC44MjNDMjQ4LjgyMyA1NS4xNzE4IDI0OC43NTEgNTUuMDc1IDI0OC42NDcgNTUuMDQyNUMyNDguNTQyIDU1LjAxMDEgMjQ4LjQyOSA1NS4wNDk0IDI0OC4zNjcgNTUuMTM5N0wyNDguNTczIDU1LjI4MTNaTTI0Ni40OTEgNTcuMDM3NUwyNDYuMzc1IDU2LjgxNkwyNDYuNDkxIDU3LjAzNzVaTTI0Ny4xNDIgNTMuOTQ3OUwyNDYuOTYzIDUzLjc3MzJMMjQ2Ljk2MyA1My43NzMzTDI0Ny4xNDIgNTMuOTQ3OVpNMjQ4LjUwOCA0OS4wMzcxSDI0OC43NThDMjQ4Ljc1OCA0OC45NjQ0IDI0OC43MjYgNDguODk1NCAyNDguNjcxIDQ4Ljg0NzlDMjQ4LjYxNiA0OC44MDA0IDI0OC41NDMgNDguNzc5MiAyNDguNDcxIDQ4Ljc4OTdMMjQ4LjUwOCA0OS4wMzcxWk0yNDQuNzM1IDQ5LjU4OTlMMjQ0Ljc3IDQ5LjgzNzVMMjQ0Ljc3MSA0OS44MzczTDI0NC43MzUgNDkuNTg5OVpNMjQxLjI1NSA1MC42OTU3TDI0MS4zOSA1MC45MDY0TDI0MS4zOTQgNTAuOTAzN0wyNDEuMjU1IDUwLjY5NTdaTTI0MS4xNTggNTQuNjMwOEwyNDEuMDE5IDU0LjgzODlMMjQxLjAyMyA1NC44NDE4TDI0MS4xNTggNTQuNjMwOFpNMjQzLjAxMSA1Ny41MDNDMjQxLjk4NCA1Ny41MDMgMjQxLjAzNSA1Ny4yOTM2IDI0MC4xNTkgNTYuODc2OEwyMzkuOTQ0IDU3LjMyODJDMjQwLjg5IDU3Ljc3ODcgMjQxLjkxNCA1OC4wMDMgMjQzLjAxMSA1OC4wMDNWNTcuNTAzWk0yNDAuMTU5IDU2Ljg3NjhDMjM5LjI4MiA1Ni40NTkxIDIzOC41OSA1NS44OTg5IDIzOC4wNzQgNTUuMTk4MkwyMzcuNjcyIDU1LjQ5NDRDMjM4LjI0IDU2LjI2ODEgMjM5IDU2Ljg3ODcgMjM5Ljk0NCA1Ny4zMjgyTDI0MC4xNTkgNTYuODc2OFpNMjM4LjA3OSA1NS4yMDQ5QzIzNy41ODcgNTQuNDg3MyAyMzcuMzQyIDUzLjcwMTcgMjM3LjM0MiA1Mi44NDIxSDIzNi44NDJDMjM2Ljg0MiA1My44MDM4IDIzNy4xMTggNTQuNjg3NyAyMzcuNjY3IDU1LjQ4NzdMMjM4LjA3OSA1NS4yMDQ5Wk0yMzcuMzQyIDUyLjg0MjFDMjM3LjM0MiA1MS40OTE1IDIzNy44OSA1MC4zOTI0IDIzOS4wMDIgNDkuNTI3MUwyMzguNjk1IDQ5LjEzMjRDMjM3LjQ2NiA1MC4wODg0IDIzNi44NDIgNTEuMzMwOCAyMzYuODQyIDUyLjg0MjFIMjM3LjM0MlpNMjM5LjAwMyA0OS41MjY3QzI0MC4xNSA0OC42MjkzIDI0MS43MDkgNDguMDMzOSAyNDMuNjk2IDQ3Ljc1NjFMMjQzLjYyNyA0Ny4yNjA5QzI0MS41ODIgNDcuNTQ2OSAyMzkuOTMyIDQ4LjE2NTcgMjM4LjY5NSA0OS4xMzI4TDIzOS4wMDMgNDkuNTI2N1pNMjQzLjY5NyA0Ny43NTYxTDI0OC41NDMgNDcuMDczMUwyNDguNDczIDQ2LjU3OEwyNDMuNjI3IDQ3LjI2MUwyNDMuNjk3IDQ3Ljc1NjFaTTI0OC43NTggNDYuODI1NlY0NS44ODI0SDI0OC4yNThWNDYuODI1NkgyNDguNzU4Wk0yNDguNzU4IDQ1Ljg4MjRDMjQ4Ljc1OCA0NC43Mjg2IDI0OC40MjUgNDMuODIwMyAyNDcuNzIxIDQzLjIwNjFDMjQ3LjAyMyA0Mi41OTc2IDI0Ni4wMDIgNDIuMzE1MiAyNDQuNzAzIDQyLjMxNTJWNDIuODE1MkMyNDUuOTQgNDIuODE1MiAyNDYuODIyIDQzLjA4NTcgMjQ3LjM5MiA0My41ODNDMjQ3Ljk1NiA0NC4wNzQ1IDI0OC4yNTggNDQuODI0OCAyNDguMjU4IDQ1Ljg4MjRIMjQ4Ljc1OFpNMjQ0LjcwMyA0Mi4zMTUyQzI0My43MTMgNDIuMzE1MiAyNDIuODggNDIuNTI4OSAyNDIuMjIxIDQyLjk3NjNMMjQyLjUwMSA0My4zOUMyNDMuMDU2IDQzLjAxMzUgMjQzLjc4NCA0Mi44MTUyIDI0NC43MDMgNDIuODE1MlY0Mi4zMTUyWk0yNDIuMjI2IDQyLjk3MjhDMjQxLjU5IDQzLjM4MTYgMjQxLjEwMyA0My44NzYzIDI0MC43NzcgNDQuNDU5NEwyNDEuMjEzIDQ0LjcwMzdDMjQxLjQ5NCA0NC4yMDI4IDI0MS45MTggNDMuNzY1MSAyNDIuNDk2IDQzLjM5MzRMMjQyLjIyNiA0Mi45NzI4Wk0yNDAuNzU4IDQ0LjUwMjVDMjQwLjcwMSA0NC42NzI2IDI0MC42MzUgNDQuNzYzNyAyNDAuNTc5IDQ0LjgwOTFMMjQwLjg5MSA0NS4xOTk2QzI0MS4wNTEgNDUuMDcxNSAyNDEuMTU5IDQ0Ljg4MDggMjQxLjIzMiA0NC42NjA2TDI0MC43NTggNDQuNTAyNVpNMjQwLjU1OCA0NC44Mjc2QzI0MC41MzUgNDQuODUwOSAyNDAuNDggNDQuODg0NCAyNDAuMzQ1IDQ0Ljg4NDRWNDUuMzg0NEMyNDAuNTU3IDQ1LjM4NDQgMjQwLjc2MiA0NS4zMzEzIDI0MC45MTIgNDUuMTgxMUwyNDAuNTU4IDQ0LjgyNzZaTTI0MC4zNDUgNDQuODg0NEgyMzguOTQ2VjQ1LjM4NDRIMjQwLjM0NVY0NC44ODQ0Wk0yMzguOTQ2IDQ0Ljg4NDRDMjM4LjgxMiA0NC44ODQ0IDIzOC42OTYgNDQuODQxOCAyMzguNTg5IDQ0Ljc0OTVMMjM4LjI2MyA0NS4xMjkxQzIzOC40NTkgNDUuMjk3IDIzOC42OSA0NS4zODQ0IDIzOC45NDYgNDUuMzg0NFY0NC44ODQ0Wk0yMzguNjE2IDQ0Ljc3NjZDMjM4LjUyMyA0NC42Njg5IDIzOC40ODEgNDQuNTUyOCAyMzguNDgxIDQ0LjQxOUgyMzcuOTgxQzIzNy45ODEgNDQuNjc1MyAyMzguMDY4IDQ0LjkwNjEgMjM4LjIzNiA0NS4xMDJMMjM4LjYxNiA0NC43NzY2Wk0yMzguNDggNDQuNDI5NEMyMzguNDk5IDQzLjk3NTYgMjM4LjcxIDQzLjQzNjUgMjM5LjE1MSA0Mi44MDYxTDIzOC43NDEgNDIuNTE5NEMyMzguMjcyIDQzLjE4OTkgMjM4LjAwNSA0My44MjE2IDIzNy45ODEgNDQuNDA4NUwyMzguNDggNDQuNDI5NFpNMjM5LjE1IDQyLjgwNzVDMjM5LjU5NiA0Mi4xNzg1IDI0MC4yODUgNDEuNjI4IDI0MS4yMzUgNDEuMTYzN0wyNDEuMDE1IDQwLjcxNDVDMjQwLjAxNCA0MS4yMDQyIDIzOS4yNSA0MS44MDI4IDIzOC43NDIgNDIuNTE4MUwyMzkuMTUgNDIuODA3NVpNMjQxLjIzOSA0MS4xNjE3QzI0Mi4xNyA0MC42ODU3IDI0My4zMzIgNDAuNDQxMSAyNDQuNzM1IDQwLjQ0MTFWMzkuOTQxMUMyNDMuMjc2IDM5Ljk0MTEgMjQyLjAzMSA0MC4xOTUyIDI0MS4wMTEgNDAuNzE2NUwyNDEuMjM5IDQxLjE2MTdaTTI0NC43MzUgNDAuNDQxMUMyNDcuMTMyIDQwLjQ0MTEgMjQ4Ljc5MyA0MS4wMDkgMjQ5Ljc4OCA0Mi4wODQ1TDI1MC4xNTUgNDEuNzQ1MUMyNDkuMDI0IDQwLjUyMjMgMjQ3LjE5NSAzOS45NDExIDI0NC43MzUgMzkuOTQxMVY0MC40NDExWk0yNDkuNzg5IDQyLjA4NjJDMjUwLjgwNCA0My4xNjI4IDI1MS4zMTUgNDQuNTA4OCAyNTEuMzE1IDQ2LjE0MjZIMjUxLjgxNUMyNTEuODE1IDQ0LjM5NDEgMjUxLjI2MyA0Mi45MjE2IDI1MC4xNTMgNDEuNzQzM0wyNDkuNzg5IDQyLjA4NjJaTTI1MS4zMTUgNDYuMTQyNlY1Ni42Nzk3SDI1MS44MTVWNDYuMTQyNkgyNTEuMzE1Wk0yNTEuMzE1IDU2LjY3OTdDMjUxLjMxNSA1Ni44MzEgMjUxLjI2NSA1Ni45NTE1IDI1MS4xNiA1Ny4wNTU4TDI1MS41MTQgNTcuNDA5NEMyNTEuNzEzIDU3LjIxMDIgMjUxLjgxNSA1Ni45NjIxIDI1MS44MTUgNTYuNjc5N0gyNTEuMzE1Wk0yNTEuMTYgNTcuMDU1OEMyNTEuMDg1IDU3LjEzMDcgMjUwLjk4IDU3LjE3NzcgMjUwLjgxNyA1Ny4xNzc3VjU3LjY3NzdDMjUxLjA4NyA1Ny42Nzc3IDI1MS4zMjkgNTcuNTk0NyAyNTEuNTE0IDU3LjQwOTRMMjUxLjE2IDU3LjA1NThaTTI1MC44MTcgNTcuMTc3N0gyNDkuMzIxVjU3LjY3NzdIMjUwLjgxN1Y1Ny4xNzc3Wk0yNDkuMzIxIDU3LjE3NzdDMjQ5LjE1OCA1Ny4xNzc3IDI0OS4wMzMgNTcuMTMwNiAyNDguOTMgNTcuMDQyOEwyNDguNjA1IDU3LjQyMjRDMjQ4LjgwNiA1Ny41OTQ3IDI0OS4wNSA1Ny42Nzc3IDI0OS4zMjEgNTcuNjc3N1Y1Ny4xNzc3Wk0yNDguOTU4IDU3LjA2OTlDMjQ4Ljg3IDU2Ljk2NzQgMjQ4LjgyMyA1Ni44NDIzIDI0OC44MjMgNTYuNjc5N0gyNDguMzIzQzI0OC4zMjMgNTYuOTUwOCAyNDguNDA2IDU3LjE5NDMgMjQ4LjU3OCA1Ny4zOTUzTDI0OC45NTggNTcuMDY5OVpNMjQ4LjgyMyA1Ni42Nzk3VjU1LjI4MTNIMjQ4LjMyM1Y1Ni42Nzk3SDI0OC44MjNaTTI0OC4zNjcgNTUuMTM5N0MyNDcuOTE3IDU1Ljc5MzMgMjQ3LjI1OCA1Ni4zNTM4IDI0Ni4zNzUgNTYuODE2TDI0Ni42MDcgNTcuMjU4OUMyNDcuNTQ2IDU2Ljc2NzIgMjQ4LjI3NCA1Ni4xNTY5IDI0OC43NzkgNTUuNDIyOUwyNDguMzY3IDU1LjEzOTdaTTI0Ni4zNzUgNTYuODE2QzI0NS41MTEgNTcuMjY4NiAyNDQuMzk1IDU3LjUwMyAyNDMuMDExIDU3LjUwM1Y1OC4wMDNDMjQ0LjQ0NyA1OC4wMDMgMjQ1LjY1IDU3Ljc2MDMgMjQ2LjYwNyA1Ny4yNTg5TDI0Ni4zNzUgNTYuODE2Wk0yNDMuNjk0IDU1LjU2MzhDMjQ1LjE2MyA1NS41NjM4IDI0Ni4zNzkgNTUuMDg2NyAyNDcuMzIxIDU0LjEyMjVMMjQ2Ljk2MyA1My43NzMzQzI0Ni4xMjYgNTQuNjMwMyAyNDUuMDQ0IDU1LjA2MzggMjQzLjY5NCA1NS4wNjM4VjU1LjU2MzhaTTI0Ny4zMjEgNTQuMTIyNkMyNDguMjkgNTMuMTI5OCAyNDguNzU4IDUxLjcyNTIgMjQ4Ljc1OCA0OS45NDc3SDI0OC4yNThDMjQ4LjI1OCA1MS42MzkyIDI0Ny44MTQgNTIuOTAxNCAyNDYuOTYzIDUzLjc3MzJMMjQ3LjMyMSA1NC4xMjI2Wk0yNDguNzU4IDQ5Ljk0NzdWNDkuMDM3MUgyNDguMjU4VjQ5Ljk0NzdIMjQ4Ljc1OFpNMjQ4LjQ3MSA0OC43ODk3TDI0NC42OTkgNDkuMzQyNkwyNDQuNzcxIDQ5LjgzNzNMMjQ4LjU0NCA0OS4yODQ0TDI0OC40NzEgNDguNzg5N1pNMjQ0LjcgNDkuMzQyNEMyNDMuMTQ1IDQ5LjU2MTQgMjQxLjk0MiA0OS45MzcyIDI0MS4xMTcgNTAuNDg3N0wyNDEuMzk0IDUwLjkwMzdDMjQyLjEyOSA1MC40MTM1IDI0My4yNDYgNTAuMDUyMSAyNDQuNzcgNDkuODM3NUwyNDQuNyA0OS4zNDI0Wk0yNDEuMTIxIDUwLjQ4NUMyNDAuMjg0IDUxLjAxOTcgMjM5LjgzNCA1MS43MzE2IDIzOS44MzQgNTIuNjE0NUgyNDAuMzM0QzI0MC4zMzQgNTEuOTM2MyAyNDAuNjY2IDUxLjM2OTEgMjQxLjM5IDUwLjkwNjRMMjQxLjEyMSA1MC40ODVaTTIzOS44MzQgNTIuNjE0NUMyMzkuODM0IDUzLjU2NDUgMjQwLjIzMyA1NC4zMTUgMjQxLjAxOSA1NC44Mzg5TDI0MS4yOTYgNTQuNDIyOEMyNDAuNjUxIDUzLjk5MjcgMjQwLjMzNCA1My4zOTkgMjQwLjMzNCA1Mi42MTQ1SDIzOS44MzRaTTI0MS4wMjMgNTQuODQxOEMyNDEuNzg1IDU1LjMyNjMgMjQyLjY3OCA1NS41NjM4IDI0My42OTQgNTUuNTYzOFY1NS4wNjM4QzI0Mi43NTkgNTUuMDYzOCAyNDEuOTYxIDU0Ljg0NiAyNDEuMjkyIDU0LjQxOTlMMjQxLjAyMyA1NC44NDE4Wk0yNTcuNjA2IDU1LjgwMTZMMjU3LjQyOCA1NS45NzdMMjU3LjQzMSA1NS45Nzk5TDI1Ny42MDYgNTUuODAxNlpNMjU1LjUyNCA1MC4yNzI5TDI1NS4yNzUgNTAuMjc5MkwyNTUuMjc1IDUwLjI4MjFMMjU1LjUyNCA1MC4yNzI5Wk0yNTUuNDkyIDQ4Ljk3MkwyNTUuMjQyIDQ4Ljk2NThMMjU1LjI0MiA0OC45NzgzTDI1NS40OTIgNDguOTcyWk0yNTUuNTI0IDQ3LjY3MTJMMjU1LjI3NSA0Ny42NjJMMjU1LjI3NSA0Ny42NjQ5TDI1NS41MjQgNDcuNjcxMlpNMjU3LjYwNiA0Mi4xNzQ5TDI1Ny43ODMgNDIuMzUxN0wyNTcuNjA2IDQyLjE3NDlaTTI2Ny4wMzcgNDEuMDM2N0wyNjYuOTIyIDQxLjI1ODVMMjY3LjAzNyA0MS4wMzY3Wk0yNjkuNDQ0IDQzLjExODFMMjY5LjIzMiA0My4yNTE2TDI2OS4yMzUgNDMuMjU1NUwyNjkuNDQ0IDQzLjExODFaTTI3MC4zMjIgNDUuNTg5N0wyNzAuMDcyIDQ1LjYwMjlMMjcwLjA3MyA0NS42MTQ2TDI3MC4zMjIgNDUuNTg5N1pNMjcwLjEyNyA0Ni4xMTAxTDI3MC4yOSA0Ni4yOTk5TDI3MC4xMjcgNDYuMTEwMVpNMjY3LjUyNSA0Ni4xNzUxTDI2Ny42ODEgNDUuOTc5OUwyNjcuNTI1IDQ2LjE3NTFaTTI2Ny4yIDQ1LjY1NDhMMjY2Ljk2NCA0NS43Mzg0TDI2Ni45NjkgNDUuNzUwOUwyNjcuMiA0NS42NTQ4Wk0yNjUuNjM5IDQzLjQ0MzNMMjY1LjQ5OSA0My42NTAzTDI2NS41MDMgNDMuNjUzNEwyNjUuNjM5IDQzLjQ0MzNaTTI1OS44ODIgNDQuMDI4N0wyNTkuNzAxIDQzLjg1NjZMMjU5LjcwMSA0My44NTY4TDI1OS44ODIgNDQuMDI4N1pNMjU4LjYxNCA0Ny44MzM4TDI1OC4zNjQgNDcuODI0M0wyNTguMzY0IDQ3LjgyNjhMMjU4LjYxNCA0Ny44MzM4Wk0yNTguNTgyIDQ5LjAwNDZMMjU4LjMzMiA0OC45OTc2QzI1OC4zMzIgNDkuMDAyNCAyNTguMzMyIDQ5LjAwNzEgMjU4LjMzMiA0OS4wMTE5TDI1OC41ODIgNDkuMDA0NlpNMjU4LjYxNCA1MC4xMTAzTDI1OC4zNjQgNTAuMTE3NkwyNTguMzY0IDUwLjExOTdMMjU4LjYxNCA1MC4xMTAzWk0yNTkuODgyIDUzLjk0NzlMMjU5LjcwMSA1NC4xMTk4TDI1OS44ODIgNTMuOTQ3OVpNMjY1LjYzOSA1NC41MzMzTDI2NS43NzQgNTQuNzQzNEwyNjUuNzc5IDU0Ljc0MDNMMjY1LjYzOSA1NC41MzMzWk0yNjcuMiA1Mi4yODkzTDI2Ni45NjkgNTIuMTkzTDI2Ni45NjQgNTIuMjA1OEwyNjcuMiA1Mi4yODkzWk0yNjcuNTI1IDUxLjc2ODlMMjY3LjY4MSA1MS45NjQxQzI2Ny42ODggNTEuOTU4NCAyNjcuNjk1IDUxLjk1MjIgMjY3LjcwMiA1MS45NDU3TDI2Ny41MjUgNTEuNzY4OVpNMjcwLjEyNyA1MS44MzRMMjY5Ljk1IDUyLjAxMDdDMjY5Ljk1NSA1Mi4wMTUzIDI2OS45NTkgNTIuMDE5NiAyNjkuOTY0IDUyLjAyMzhMMjcwLjEyNyA1MS44MzRaTTI3MC4zMjIgNTIuMzU0M0wyNzAuMDczIDUyLjMyOTRMMjcwLjA3MiA1Mi4zNDA4TDI3MC4zMjIgNTIuMzU0M1pNMjY5LjQ0NCA1NC44MjZMMjY5LjIzMyA1NC42OTExTDI2OS4yMzIgNTQuNjkyNUwyNjkuNDQ0IDU0LjgyNlpNMjY3LjAzNyA1Ni45MDc0TDI2Ni45MjIgNTYuNjg1NkwyNjYuOTIgNTYuNjg2NUwyNjcuMDM3IDU2LjkwNzRaTTI2My4wNyA1Ny41MDNDMjYwLjc5OCA1Ny41MDMgMjU5LjA0NiA1Ni44Njc0IDI1Ny43ODEgNTUuNjIzNEwyNTcuNDMxIDU1Ljk3OTlDMjU4LjgxMSA1Ny4zMzc2IDI2MC43MDEgNTguMDAzIDI2My4wNyA1OC4wMDNWNTcuNTAzWk0yNTcuNzg0IDU1LjYyNjNDMjU2LjUzOCA1NC4zNTk1IDI1NS44NTkgNTIuNTgyNCAyNTUuNzc0IDUwLjI2MzdMMjU1LjI3NSA1MC4yODIxQzI1NS4zNjMgNTIuNjkgMjU2LjA3MiA1NC41OTg3IDI1Ny40MjggNTUuOTc2OUwyNTcuNzg0IDU1LjYyNjNaTTI1NS43NzQgNTAuMjY2N0wyNTUuNzQyIDQ4Ljk2NThMMjU1LjI0MiA0OC45NzgzTDI1NS4yNzUgNTAuMjc5MkwyNTUuNzc0IDUwLjI2NjdaTTI1NS43NDIgNDguOTc4M0wyNTUuNzc0IDQ3LjY3NzRMMjU1LjI3NSA0Ny42NjQ5TDI1NS4yNDIgNDguOTY1OEwyNTUuNzQyIDQ4Ljk3ODNaTTI1NS43NzQgNDcuNjgwM0MyNTUuODU5IDQ1LjM2MTUgMjU2LjUzOCA0My41OTYzIDI1Ny43ODMgNDIuMzUxN0wyNTcuNDI5IDQxLjk5ODJDMjU2LjA3MiA0My4zNTUzIDI1NS4zNjMgNDUuMjU0MyAyNTUuMjc1IDQ3LjY2MkwyNTUuNzc0IDQ3LjY4MDNaTTI1Ny43ODMgNDIuMzUxN0MyNTkuMDQ4IDQxLjA4NjggMjYwLjc5OSA0MC40NDExIDI2My4wNyA0MC40NDExVjM5Ljk0MTFDMjYwLjcgMzkuOTQxMSAyNTguODA5IDQwLjYxOCAyNTcuNDI5IDQxLjk5ODJMMjU3Ljc4MyA0Mi4zNTE3Wk0yNjMuMDcgNDAuNDQxMUMyNjQuNjAxIDQwLjQ0MTEgMjY1Ljg4MiA0MC43MTc3IDI2Ni45MjIgNDEuMjU4NUwyNjcuMTUzIDQwLjgxNDlDMjY2LjAyNCA0MC4yMjgyIDI2NC42NiAzOS45NDExIDI2My4wNyAzOS45NDExVjQwLjQ0MTFaTTI2Ni45MjIgNDEuMjU4NUMyNjcuOTc3IDQxLjgwNjkgMjY4Ljc0MSA0Mi40NzM1IDI2OS4yMzIgNDMuMjUxNkwyNjkuNjU1IDQyLjk4NDZDMjY5LjEwNiA0Mi4xMTQ5IDI2OC4yNjYgNDEuMzkzOSAyNjcuMTUzIDQwLjgxNDlMMjY2LjkyMiA0MS4yNTg1Wk0yNjkuMjM1IDQzLjI1NTVDMjY5Ljc1NyA0NC4wNDk2IDI3MC4wMzIgNDQuODMxMyAyNzAuMDcyIDQ1LjYwMjlMMjcwLjU3MiA0NS41NzY2QzI3MC41MjYgNDQuNzAwNSAyNzAuMjE0IDQzLjgzNDQgMjY5LjY1MyA0Mi45ODA3TDI2OS4yMzUgNDMuMjU1NVpNMjcwLjA3MyA0NS42MTQ2QzI3MC4wODggNDUuNzU4NyAyNzAuMDQ4IDQ1Ljg0ODggMjY5Ljk2NCA0NS45MjAzTDI3MC4yOSA0Ni4yOTk5QzI3MC41MSA0Ni4xMTEyIDI3MC42IDQ1Ljg1NDQgMjcwLjU3MSA0NS41NjQ5TDI3MC4wNzMgNDUuNjE0NlpNMjY5Ljk2NCA0NS45MjAzQzI2OS44NjIgNDYuMDA4MSAyNjkuNzM3IDQ2LjA1NTIgMjY5LjU3NCA0Ni4wNTUyVjQ2LjU1NTJDMjY5Ljg0NSA0Ni41NTUyIDI3MC4wODggNDYuNDcyMiAyNzAuMjkgNDYuMjk5OUwyNjkuOTY0IDQ1LjkyMDNaTTI2OS41NzQgNDYuMDU1MkgyNjguMDEzVjQ2LjU1NTJIMjY5LjU3NFY0Ni4wNTUyWk0yNjguMDEzIDQ2LjA1NTJDMjY3LjgyMyA0Ni4wNTUyIDI2Ny43MjYgNDYuMDE2MSAyNjcuNjgxIDQ1Ljk3OTlMMjY3LjM2OSA0Ni4zNzA0QzI2Ny41NCA0Ni41MDc2IDI2Ny43NjkgNDYuNTU1MiAyNjguMDEzIDQ2LjU1NTJWNDYuMDU1MlpNMjY3LjY4MSA0NS45Nzk5QzI2Ny42MjUgNDUuOTM0OSAyNjcuNTM2IDQ1LjgxMjMgMjY3LjQzMSA0NS41NTg2TDI2Ni45NjkgNDUuNzUwOUMyNjcuMDggNDYuMDE3NyAyNjcuMjA4IDQ2LjI0MTkgMjY3LjM2OSA0Ni4zNzA0TDI2Ny42ODEgNDUuOTc5OVpNMjY3LjQzNiA0NS41NzEzQzI2Ny4wNTUgNDQuNDk4IDI2Ni41MDggNDMuNzA2NCAyNjUuNzc0IDQzLjIzMzJMMjY1LjUwMyA0My42NTM0QzI2Ni4xMTQgNDQuMDQ3NSAyNjYuNjA3IDQ0LjczMDIgMjY2Ljk2NCA0NS43MzgzTDI2Ny40MzYgNDUuNTcxM1pNMjY1Ljc3OSA0My4yMzYzQzI2NS4wNTYgNDIuNzQ2NiAyNjQuMTU4IDQyLjUxMDMgMjYzLjEwMiA0Mi41MTAzVjQzLjAxMDNDMjY0LjA4NCA0My4wMTAzIDI2NC44NzcgNDMuMjI5NCAyNjUuNDk5IDQzLjY1MDNMMjY1Ljc3OSA0My4yMzYzWk0yNjMuMTAyIDQyLjUxMDNDMjYxLjcwMSA0Mi41MTAzIDI2MC41NTggNDIuOTUzNSAyNTkuNzAxIDQzLjg1NjZMMjYwLjA2NCA0NC4yMDA4QzI2MC44MTEgNDMuNDEyNyAyNjEuODE1IDQzLjAxMDMgMjYzLjEwMiA0My4wMTAzVjQyLjUxMDNaTTI1OS43MDEgNDMuODU2OEMyNTguODYyIDQ0Ljc0MjQgMjU4LjQzIDQ2LjA4MDcgMjU4LjM2NCA0Ny44MjQzTDI1OC44NjQgNDcuODQzMkMyNTguOTI4IDQ2LjE2MTEgMjU5LjM0MiA0NC45NjI3IDI2MC4wNjQgNDQuMjAwNkwyNTkuNzAxIDQzLjg1NjhaTTI1OC4zNjQgNDcuODI2OEwyNTguMzMyIDQ4Ljk5NzZMMjU4LjgzMSA0OS4wMTE1TDI1OC44NjQgNDcuODQwN0wyNTguMzY0IDQ3LjgyNjhaTTI1OC4zMzIgNDkuMDExOUwyNTguMzY0IDUwLjExNzZMMjU4Ljg2NCA1MC4xMDI5TDI1OC44MzEgNDguOTk3MkwyNTguMzMyIDQ5LjAxMTlaTTI1OC4zNjQgNTAuMTE5N0MyNTguNDMgNTEuODgzOSAyNTguODYxIDUzLjIzMzYgMjU5LjcwMSA1NC4xMTk4TDI2MC4wNjQgNTMuNzc1OUMyNTkuMzQyIDUzLjAxNDQgMjU4LjkyOCA1MS44MDU3IDI1OC44NjQgNTAuMTAwOUwyNTguMzY0IDUwLjExOTdaTTI1OS43MDEgNTQuMTE5OEMyNjAuNTM4IDU1LjAwMzUgMjYxLjY4MyA1NS40MzM3IDI2My4xMDIgNTUuNDMzN1Y1NC45MzM3QzI2MS43OSA1NC45MzM3IDI2MC43ODggNTQuNTQgMjYwLjA2NCA1My43NzU5TDI1OS43MDEgNTQuMTE5OFpNMjYzLjEwMiA1NS40MzM3QzI2NC4xNTYgNTUuNDMzNyAyNjUuMDUyIDU1LjIwOTMgMjY1Ljc3NCA1NC43NDM0TDI2NS41MDMgNTQuMzIzMkMyNjQuODgxIDU0LjcyNDUgMjY0LjA4NiA1NC45MzM3IDI2My4xMDIgNTQuOTMzN1Y1NS40MzM3Wk0yNjUuNzc5IDU0Ljc0MDNDMjY2LjUwOSA1NC4yNDU5IDI2Ny4wNTUgNTMuNDQ1OSAyNjcuNDM2IDUyLjM3MjdMMjY2Ljk2NCA1Mi4yMDU4QzI2Ni42MDcgNTMuMjE0IDI2Ni4xMTMgNTMuOTEgMjY1LjQ5OSA1NC4zMjYzTDI2NS43NzkgNTQuNzQwM1pNMjY3LjQzMSA1Mi4zODU0QzI2Ny41MzYgNTIuMTMxOCAyNjcuNjI1IDUyLjAwOTEgMjY3LjY4MSA1MS45NjQxTDI2Ny4zNjkgNTEuNTczN0MyNjcuMjA4IDUxLjcwMjEgMjY3LjA4IDUxLjkyNjQgMjY2Ljk2OSA1Mi4xOTMxTDI2Ny40MzEgNTIuMzg1NFpNMjY3LjcwMiA1MS45NDU3QzI2Ny43NDcgNTEuOTAwNyAyNjcuODM1IDUxLjg1NjMgMjY4LjAxMyA1MS44NTYzVjUxLjM1NjNDMjY3Ljc1OCA1MS4zNTYzIDI2Ny41MiA1MS40MjAzIDI2Ny4zNDggNTEuNTkyMUwyNjcuNzAyIDUxLjk0NTdaTTI2OC4wMTMgNTEuODU2M0gyNjkuNTc0VjUxLjM1NjNIMjY4LjAxM1Y1MS44NTYzWk0yNjkuNTc0IDUxLjg1NjNDMjY5LjcyNSA1MS44NTYzIDI2OS44NDYgNTEuOTA2NCAyNjkuOTUgNTIuMDEwN0wyNzAuMzA0IDUxLjY1NzJDMjcwLjEwNCA1MS40NTggMjY5Ljg1NiA1MS4zNTYzIDI2OS41NzQgNTEuMzU2M1Y1MS44NTYzWk0yNjkuOTY0IDUyLjAyMzhDMjcwLjA0OCA1Mi4wOTUzIDI3MC4wODggNTIuMTg1NCAyNzAuMDczIDUyLjMyOTRMMjcwLjU3MSA1Mi4zNzkyQzI3MC42IDUyLjA4OTYgMjcwLjUxIDUxLjgzMjggMjcwLjI5IDUxLjY0NDFMMjY5Ljk2NCA1Mi4wMjM4Wk0yNzAuMDcyIDUyLjM0MDhDMjcwLjAzMiA1My4wOTAzIDI2OS43NTggNTMuODcyOSAyNjkuMjMzIDU0LjY5MTFMMjY5LjY1NCA1NC45NjA5QzI3MC4yMTQgNTQuMDg3OSAyNzAuNTI1IDUzLjIyMjcgMjcwLjU3MiA1Mi4zNjc4TDI3MC4wNzIgNTIuMzQwOFpNMjY5LjIzMiA1NC42OTI1QzI2OC43NDEgNTUuNDcwNiAyNjcuOTc3IDU2LjEzNzIgMjY2LjkyMiA1Ni42ODU2TDI2Ny4xNTMgNTcuMTI5MkMyNjguMjY2IDU2LjU1MDIgMjY5LjEwNiA1NS44MjkyIDI2OS42NTUgNTQuOTU5NUwyNjkuMjMyIDU0LjY5MjVaTTI2Ni45MiA1Ni42ODY1QzI2NS45MDMgNTcuMjI2IDI2NC42MjQgNTcuNTAzIDI2My4wNyA1Ny41MDNWNTguMDAzQzI2NC42ODEgNTguMDAzIDI2Ni4wNDYgNTcuNzE2MiAyNjcuMTU0IDU3LjEyODJMMjY2LjkyIDU2LjY4NjVaTTI3NC40MTIgNTcuMjMyNkwyNzQuMjIyIDU3LjM5NTNDMjc0LjIzIDU3LjQwNSAyNzQuMjM5IDU3LjQxNDEgMjc0LjI0OSA1Ny40MjI0TDI3NC40MTIgNTcuMjMyNlpNMjc0LjQxMiAzNC41NjQ4TDI3NC41ODkgMzQuNzQxNkwyNzQuNTg5IDM0Ljc0MTZMMjc0LjQxMiAzNC41NjQ4Wk0yNzcuMTExIDM0LjU2NDhMMjc2LjkyMSAzNC43Mjc1QzI3Ni45MyAzNC43MzcyIDI3Ni45MzkgMzQuNzQ2MyAyNzYuOTQ4IDM0Ljc1NDZMMjc3LjExMSAzNC41NjQ4Wk0yNzcuMzM5IDQyLjY2MjhIMjc3LjA4OUMyNzcuMDg5IDQyLjc2OTQgMjc3LjE1NiA0Mi44NjQzIDI3Ny4yNTcgNDIuODk5MUMyNzcuMzU4IDQyLjkzMzkgMjc3LjQ3IDQyLjkwMDkgMjc3LjUzNiA0Mi44MTdMMjc3LjMzOSA0Mi42NjI4Wk0yNzkuNTUgNDAuODQxNUwyNzkuNjYgNDEuMDY2M0wyNzkuNjY0IDQxLjA2NEwyNzkuNTUgNDAuODQxNVpNMjg3LjU1MSA0Mi4yMDc1TDI4Ny4zNjEgNDIuMzY5OUwyODcuMzY0IDQyLjM3MzJMMjg3LjU1MSA0Mi4yMDc1Wk0yODkuMDc5IDU3LjIzMjZMMjg4LjkwMiA1Ny4wNTU4SDI4OC45MDJMMjg5LjA3OSA1Ny4yMzI2Wk0yODYuMzggNTcuMjMyNkwyODYuMTkgNTcuMzk1M0MyODYuMTk4IDU3LjQwNSAyODYuMjA4IDU3LjQxNDEgMjg2LjIxNyA1Ny40MjI0TDI4Ni4zOCA1Ny4yMzI2Wk0yODUuMDQ3IDQ0LjA5MzdMMjg0Ljg1OCA0NC4yNThMMjg0Ljg2IDQ0LjI2MDdMMjg1LjA0NyA0NC4wOTM3Wk0yNzguNTQyIDQ0LjEyNjNMMjc4LjM2MSA0My45NTQxTDI3OC4zNjEgNDMuOTU0MkwyNzguNTQyIDQ0LjEyNjNaTTI3Ny4xMTEgNTcuMjMyNkwyNzYuOTM0IDU3LjA1NThMMjc3LjExMSA1Ny4yMzI2Wk0yNzQuOTY1IDU3LjE3NzdDMjc0LjgwMiA1Ny4xNzc3IDI3NC42NzcgNTcuMTMwNiAyNzQuNTc1IDU3LjA0MjhMMjc0LjI0OSA1Ny40MjI0QzI3NC40NSA1Ny41OTQ3IDI3NC42OTQgNTcuNjc3NyAyNzQuOTY1IDU3LjY3NzdWNTcuMTc3N1pNMjc0LjYwMiA1Ny4wNjk5QzI3NC41MTQgNTYuOTY3NCAyNzQuNDY3IDU2Ljg0MjMgMjc0LjQ2NyA1Ni42Nzk3SDI3My45NjdDMjczLjk2NyA1Ni45NTA4IDI3NC4wNSA1Ny4xOTQzIDI3NC4yMjIgNTcuMzk1M0wyNzQuNjAyIDU3LjA2OTlaTTI3NC40NjcgNTYuNjc5N1YzNS4wODUySDI3My45NjdWNTYuNjc5N0gyNzQuNDY3Wk0yNzQuNDY3IDM1LjA4NTJDMjc0LjQ2NyAzNC45MjE5IDI3NC41MTQgMzQuODE2NSAyNzQuNTg5IDM0Ljc0MTZMMjc0LjIzNSAzNC4zODhDMjc0LjA1IDM0LjU3MzMgMjczLjk2NyAzNC44MTQ4IDI3My45NjcgMzUuMDg1MkgyNzQuNDY3Wk0yNzQuNTg5IDM0Ljc0MTZDMjc0LjY5MyAzNC42MzcyIDI3NC44MTMgMzQuNTg3MiAyNzQuOTY1IDM0LjU4NzJWMzQuMDg3MkMyNzQuNjgyIDM0LjA4NzIgMjc0LjQzNCAzNC4xODg4IDI3NC4yMzUgMzQuMzg4TDI3NC41ODkgMzQuNzQxNlpNMjc0Ljk2NSAzNC41ODcySDI3Ni41OTFWMzQuMDg3MkgyNzQuOTY1VjM0LjU4NzJaTTI3Ni41OTEgMzQuNTg3MkMyNzYuNzQyIDM0LjU4NzIgMjc2Ljg0MyAzNC42MzYyIDI3Ni45MjEgMzQuNzI3NUwyNzcuMzAxIDM0LjQwMjFDMjc3LjExOSAzNC4xODk4IDI3Ni44NzQgMzQuMDg3MiAyNzYuNTkxIDM0LjA4NzJWMzQuNTg3MlpNMjc2Ljk0OCAzNC43NTQ2QzI3Ny4wNCAzNC44MzI4IDI3Ny4wODkgMzQuOTM0MyAyNzcuMDg5IDM1LjA4NTJIMjc3LjU4OUMyNzcuNTg5IDM0LjgwMjQgMjc3LjQ4NiAzNC41NTY5IDI3Ny4yNzQgMzQuMzc1TDI3Ni45NDggMzQuNzU0NlpNMjc3LjA4OSAzNS4wODUyVjQyLjY2MjhIMjc3LjU4OVYzNS4wODUySDI3Ny4wODlaTTI3Ny41MzYgNDIuODE3QzI3OC4xNDMgNDIuMDQyMSAyNzguODUxIDQxLjQ2MDMgMjc5LjY2IDQxLjA2NjNMMjc5LjQ0MSA0MC42MTY4QzI3OC41NTggNDEuMDQ2NyAyNzcuNzkyIDQxLjY3OTEgMjc3LjE0MiA0Mi41MDg2TDI3Ny41MzYgNDIuODE3Wk0yNzkuNjY0IDQxLjA2NEMyODAuNDY1IDQwLjY1MzQgMjgxLjQ3NSA0MC40NDExIDI4Mi43MDUgNDAuNDQxMVYzOS45NDExQzI4MS40MiAzOS45NDExIDI4MC4zMjcgNDAuMTYyNSAyNzkuNDM2IDQwLjYxOTFMMjc5LjY2NCA0MS4wNjRaTTI4Mi43MDUgNDAuNDQxMUMyODQuNzI4IDQwLjQ0MTEgMjg2LjI2OCA0MS4wOTEyIDI4Ny4zNjEgNDIuMzY5OUwyODcuNzQxIDQyLjA0NUMyODYuNTM2IDQwLjYzNTIgMjg0Ljg0NSAzOS45NDExIDI4Mi43MDUgMzkuOTQxMVY0MC40NDExWk0yODcuMzY0IDQyLjM3MzJDMjg4LjQ4NCA0My42MzkzIDI4OS4wNTcgNDUuMzQyMSAyODkuMDU3IDQ3LjUwODVIMjg5LjU1N0MyODkuNTU3IDQ1LjI1MTkgMjg4Ljk1OSA0My40MjA3IDI4Ny43MzggNDIuMDQxOEwyODcuMzY0IDQyLjM3MzJaTTI4OS4wNTcgNDcuNTA4NVY1Ni42Nzk3SDI4OS41NTdWNDcuNTA4NUgyODkuMDU3Wk0yODkuMDU3IDU2LjY3OTdDMjg5LjA1NyA1Ni44MzEgMjg5LjAwNyA1Ni45NTE1IDI4OC45MDIgNTcuMDU1OEwyODkuMjU2IDU3LjQwOTRDMjg5LjQ1NSA1Ny4yMTAyIDI4OS41NTcgNTYuOTYyMSAyODkuNTU3IDU2LjY3OTdIMjg5LjA1N1pNMjg4LjkwMiA1Ny4wNTU4QzI4OC44MjggNTcuMTMwNyAyODguNzIyIDU3LjE3NzcgMjg4LjU1OSA1Ny4xNzc3VjU3LjY3NzdDMjg4LjgyOSA1Ny42Nzc3IDI4OS4wNzEgNTcuNTk0NyAyODkuMjU2IDU3LjQwOTRMMjg4LjkwMiA1Ny4wNTU4Wk0yODguNTU5IDU3LjE3NzdIMjg2LjkzM1Y1Ny42Nzc3SDI4OC41NTlWNTcuMTc3N1pNMjg2LjkzMyA1Ny4xNzc3QzI4Ni43NyA1Ny4xNzc3IDI4Ni42NDUgNTcuMTMwNiAyODYuNTQzIDU3LjA0MjhMMjg2LjIxNyA1Ny40MjI0QzI4Ni40MTggNTcuNTk0NyAyODYuNjYyIDU3LjY3NzcgMjg2LjkzMyA1Ny42Nzc3VjU3LjE3NzdaTTI4Ni41NyA1Ny4wNjk5QzI4Ni40ODIgNTYuOTY3NCAyODYuNDM1IDU2Ljg0MjMgMjg2LjQzNSA1Ni42Nzk3SDI4NS45MzVDMjg1LjkzNSA1Ni45NTA4IDI4Ni4wMTggNTcuMTk0MyAyODYuMTkgNTcuMzk1M0wyODYuNTcgNTcuMDY5OVpNMjg2LjQzNSA1Ni42Nzk3VjQ3LjY3MTJIMjg1LjkzNVY1Ni42Nzk3SDI4Ni40MzVaTTI4Ni40MzUgNDcuNjcxMkMyODYuNDM1IDQ2LjA5MjMgMjg2LjA0NSA0NC44MzI0IDI4NS4yMzMgNDMuOTI2OEwyODQuODYgNDQuMjYwN0MyODUuNTY1IDQ1LjA0NjMgMjg1LjkzNSA0Ni4xNzEzIDI4NS45MzUgNDcuNjcxMkgyODYuNDM1Wk0yODUuMjM1IDQzLjkyOTVDMjg0LjQzOSA0My4wMTYgMjgzLjI4OCA0Mi41NzU0IDI4MS44MjcgNDIuNTc1NFY0My4wNzU0QzI4My4xODQgNDMuMDc1NCAyODQuMTggNDMuNDgwMyAyODQuODU4IDQ0LjI1OEwyODUuMjM1IDQzLjkyOTVaTTI4MS44MjcgNDIuNTc1NEMyODAuNDAzIDQyLjU3NTQgMjc5LjIzOSA0My4wMjk5IDI3OC4zNjEgNDMuOTU0MUwyNzguNzIzIDQ0LjI5ODRDMjc5LjQ5MyA0My40ODgxIDI4MC41MTkgNDMuMDc1NCAyODEuODI3IDQzLjA3NTRWNDIuNTc1NFpNMjc4LjM2MSA0My45NTQyQzI3Ny41MDIgNDQuODU4OSAyNzcuMDg5IDQ2LjEwOTQgMjc3LjA4OSA0Ny42NzEySDI3Ny41ODlDMjc3LjU4OSA0Ni4xOTc1IDI3Ny45NzcgNDUuMDg0NyAyNzguNzI0IDQ0LjI5ODNMMjc4LjM2MSA0My45NTQyWk0yNzcuMDg5IDQ3LjY3MTJWNTYuNjc5N0gyNzcuNTg5VjQ3LjY3MTJIMjc3LjA4OVpNMjc3LjA4OSA1Ni42Nzk3QzI3Ny4wODkgNTYuODMxIDI3Ny4wMzkgNTYuOTUxNSAyNzYuOTM0IDU3LjA1NThMMjc3LjI4OCA1Ny40MDk0QzI3Ny40ODcgNTcuMjEwMiAyNzcuNTg5IDU2Ljk2MjEgMjc3LjU4OSA1Ni42Nzk3SDI3Ny4wODlaTTI3Ni45MzQgNTcuMDU1OEMyNzYuODU5IDU3LjEzMDcgMjc2Ljc1NCA1Ny4xNzc3IDI3Ni41OTEgNTcuMTc3N1Y1Ny42Nzc3QzI3Ni44NjEgNTcuNjc3NyAyNzcuMTAzIDU3LjU5NDcgMjc3LjI4OCA1Ny40MDk0TDI3Ni45MzQgNTcuMDU1OFpNMjc2LjU5MSA1Ny4xNzc3SDI3NC45NjVWNTcuNjc3N0gyNzYuNTkxVjU3LjE3NzdaTTI5NS40MDEgNTUuNzA0MUwyOTUuMjIgNTUuODc2NkwyOTUuMjIzIDU1Ljg3OTRMMjk1LjQwMSA1NS43MDQxWk0yOTMuMjIyIDUwLjA0NTNMMjkyLjk3MiA1MC4wNTI2TDI5Mi45NzIgNTAuMDU4OUwyOTMuMjIyIDUwLjA0NTNaTTI5My4xODkgNDguOTM5NUwyOTIuOTM5IDQ4LjkzMTlDMjkyLjkzOSA0OC45MzY5IDI5Mi45MzkgNDguOTQxOSAyOTIuOTM5IDQ4Ljk0NjlMMjkzLjE4OSA0OC45Mzk1Wk0yOTMuMjIyIDQ3Ljg2NjNMMjkyLjk3MiA0Ny44NTAxTDI5Mi45NzIgNDcuODU4N0wyOTMuMjIyIDQ3Ljg2NjNaTTI5NS40MzMgNDIuMjcyNUwyOTUuMjU0IDQyLjA5ODZMMjk1LjI1MiA0Mi4xTDI5NS40MzMgNDIuMjcyNVpNMzA2LjMyOCA0Mi41MDAyTDMwNi4xMzggNDIuNjYzMUwzMDYuMTQgNDIuNjY0NEwzMDYuMzI4IDQyLjUwMDJaTTMwOC4wODQgNDkuNzg1MUwzMDguMjYxIDQ5Ljk2MTlWNDkuOTYxOUwzMDguMDg0IDQ5Ljc4NTFaTTI5Ni4zMTEgNDkuOTgwMlY0OS43MzAyQzI5Ni4xNzMgNDkuNzMwMiAyOTYuMDYxIDQ5Ljg0MjEgMjk2LjA2MSA0OS45ODAySDI5Ni4zMTFaTTI5Ni4zMTEgNTAuMjcyOUgyOTYuMDYxTDI5Ni4wNjIgNTAuMjg0NEwyOTYuMzExIDUwLjI3MjlaTTI5Ny41OCA1My44ODI4TDI5Ny4zODMgNTQuMDM3TDI5Ny4zODcgNTQuMDQxNkwyOTcuNTggNTMuODgyOFpNMzAzLjE3MyA1NC43NjA5TDMwMy4zMDUgNTQuOTczNEwzMDMuMzA3IDU0Ljk3MjFMMzAzLjE3MyA1NC43NjA5Wk0zMDQuNjA0IDUzLjQ5MjZMMzA0LjQwNCA1My4zNDI1TDMwNC40IDUzLjM0OTJMMzA0LjYwNCA1My40OTI2Wk0zMDUuMDI3IDUzLjAzNzNMMzA1LjEzOSA1My4yNjA5QzMwNS4xNDUgNTMuMjU4IDMwNS4xNSA1My4yNTQ5IDMwNS4xNTYgNTMuMjUxNkwzMDUuMDI3IDUzLjAzNzNaTTMwNy42NjEgNTMuMTAyM0wzMDcuNTAxIDUzLjI5NDRMMzA3LjY2MSA1My4xMDIzWk0zMDYuOTQ2IDU1LjI4MTNMMzA2Ljc2IDU1LjExMzdMMzA2Ljc1NyA1NS4xMTcxTDMwNi45NDYgNTUuMjgxM1pNMzA0LjQ0MiA1Ny4wMzc1TDMwNC41NDQgNTcuMjY1NUwzMDQuNTQ2IDU3LjI2NDZMMzA0LjQ0MiA1Ny4wMzc1Wk0zMDUuMjIyIDQ3LjczNjJWNDcuOTg2MkMzMDUuMzYgNDcuOTg2MiAzMDUuNDcyIDQ3Ljg3NDMgMzA1LjQ3MiA0Ny43MzYySDMwNS4yMjJaTTMwMy45ODYgNDMuOTk2MkwzMDMuNzk1IDQ0LjE1NzFMMzAzLjc5OSA0NC4xNjE3TDMwMy45ODYgNDMuOTk2MlpNMjk3LjQ4MiA0My45OTYyTDI5Ny4yOTEgNDMuODM1M0wyOTcuMjkgNDMuODM1N0wyOTcuNDgyIDQzLjk5NjJaTTI5Ni4zMTEgNDcuNzM2MkgyOTYuMDYxQzI5Ni4wNjEgNDcuODc0MyAyOTYuMTczIDQ3Ljk4NjIgMjk2LjMxMSA0Ny45ODYyVjQ3LjczNjJaTTMwMC43NjcgNTcuNTAzQzI5OC41ODkgNTcuNTAzIDI5Ni44NjggNTYuODM5IDI5NS41NzkgNTUuNTI4N0wyOTUuMjIzIDU1Ljg3OTRDMjk2LjYyMiA1Ny4zMDEgMjk4LjQ3OSA1OC4wMDMgMzAwLjc2NyA1OC4wMDNWNTcuNTAzWk0yOTUuNTgyIDU1LjUzMTZDMjk0LjMxIDU0LjE5NjkgMjkzLjU5OSA1Mi4zNzIyIDI5My40NzEgNTAuMDMxNkwyOTIuOTcyIDUwLjA1ODlDMjkzLjEwNSA1Mi40ODgxIDI5My44NDcgNTQuNDM2IDI5NS4yMiA1NS44NzY2TDI5NS41ODIgNTUuNTMxNlpNMjkzLjQ3MiA1MC4wMzc5TDI5My40MzkgNDguOTMyMkwyOTIuOTM5IDQ4Ljk0NjlMMjkyLjk3MiA1MC4wNTI2TDI5My40NzIgNTAuMDM3OVpNMjkzLjQzOSA0OC45NDcxTDI5My40NzIgNDcuODczOUwyOTIuOTcyIDQ3Ljg1ODdMMjkyLjkzOSA0OC45MzE5TDI5My40MzkgNDguOTQ3MVpNMjkzLjQ3MSA0Ny44ODI1QzI5My42MiA0NS41ODU4IDI5NC4zNDEgNDMuNzgxMiAyOTUuNjE0IDQyLjQ0NUwyOTUuMjUyIDQyLjFDMjkzLjg4MSA0My41MzkgMjkzLjEyNyA0NS40NjM2IDI5Mi45NzIgNDcuODUwMUwyOTMuNDcxIDQ3Ljg4MjVaTTI5NS42MTMgNDIuNDQ2NUMyOTYuOTAzIDQxLjExNDEgMjk4LjYwMiA0MC40NDExIDMwMC43MzQgNDAuNDQxMVYzOS45NDExQzI5OC40ODcgMzkuOTQxMSAyOTYuNjUxIDQwLjY1NTcgMjk1LjI1NCA0Mi4wOTg2TDI5NS42MTMgNDIuNDQ2NVpNMzAwLjczNCA0MC40NDExQzMwMy4wODMgNDAuNDQxMSAzMDQuODcyIDQxLjE4OTQgMzA2LjEzOCA0Mi42NjMxTDMwNi41MTggNDIuMzM3MkMzMDUuMTM5IDQwLjczMjIgMzAzLjE5OSAzOS45NDExIDMwMC43MzQgMzkuOTQxMVY0MC40NDExWk0zMDYuMTQgNDIuNjY0NEMzMDcuNDEyIDQ0LjEyNDYgMzA4LjA2MiA0Ni4xMTk5IDMwOC4wNjIgNDguNjc5M0gzMDguNTYyQzMwOC41NjIgNDYuMDM1MyAzMDcuODg5IDQzLjkxMTEgMzA2LjUxNyA0Mi4zMzU5TDMwNi4xNCA0Mi42NjQ0Wk0zMDguMDYyIDQ4LjY3OTNWNDkuMjMyMkgzMDguNTYyVjQ4LjY3OTNIMzA4LjA2MlpNMzA4LjA2MiA0OS4yMzIyQzMwOC4wNjIgNDkuMzgzNSAzMDguMDEyIDQ5LjUwMzkgMzA3LjkwNyA0OS42MDgzTDMwOC4yNjEgNDkuOTYxOUMzMDguNDYgNDkuNzYyNyAzMDguNTYyIDQ5LjUxNDYgMzA4LjU2MiA0OS4yMzIySDMwOC4wNjJaTTMwNy45MDcgNDkuNjA4M0MzMDcuODMzIDQ5LjY4MzIgMzA3LjcyNyA0OS43MzAyIDMwNy41NjQgNDkuNzMwMlY1MC4yMzAyQzMwNy44MzQgNTAuMjMwMiAzMDguMDc2IDUwLjE0NzEgMzA4LjI2MSA0OS45NjE5TDMwNy45MDcgNDkuNjA4M1pNMzA3LjU2NCA0OS43MzAySDI5Ni4zMTFWNTAuMjMwMkgzMDcuNTY0VjQ5LjczMDJaTTI5Ni4wNjEgNDkuOTgwMlY1MC4yNzI5SDI5Ni41NjFWNDkuOTgwMkgyOTYuMDYxWk0yOTYuMDYyIDUwLjI4NDRDMjk2LjEyOSA1MS43Mzk0IDI5Ni41NjcgNTIuOTk0MSAyOTcuMzgzIDU0LjAzNjlMMjk3Ljc3NyA1My43Mjg4QzI5Ny4wMzIgNTIuNzc2OSAyOTYuNjI0IDUxLjYyNSAyOTYuNTYxIDUwLjI2MTRMMjk2LjA2MiA1MC4yODQ0Wk0yOTcuMzg3IDU0LjA0MTZDMjk4LjIzOCA1NS4wNzcgMjk5LjM2MSA1NS41OTYzIDMwMC43MzQgNTUuNTk2M1Y1NS4wOTYzQzI5OS41MDYgNTUuMDk2MyAyOTguNTI2IDU0LjY0IDI5Ny43NzMgNTMuNzI0MUwyOTcuMzg3IDU0LjA0MTZaTTMwMC43MzQgNTUuNTk2M0MzMDEuNzYzIDU1LjU5NjMgMzAyLjYyNSA1NS4zOTUzIDMwMy4zMDUgNTQuOTczM0wzMDMuMDQyIDU0LjU0ODVDMzAyLjQ2NCA1NC45MDcxIDMwMS43MDEgNTUuMDk2MyAzMDAuNzM0IDU1LjA5NjNWNTUuNTk2M1pNMzAzLjMwNyA1NC45NzIxQzMwMy45NzQgNTQuNTQ5OSAzMDQuNDggNTQuMTA2IDMwNC44MDkgNTMuNjM1OUwzMDQuNCA1My4zNDkyQzMwNC4xMjIgNTMuNzQ2NCAzMDMuNjc0IDU0LjE0ODEgMzAzLjA0IDU0LjU0OTdMMzAzLjMwNyA1NC45NzIxWk0zMDQuODA0IDUzLjY0MjZDMzA0Ljg5OSA1My41MTYgMzA0Ljk3NyA1My40MjA3IDMwNS4wNCA1My4zNTM3QzMwNS4wNzEgNTMuMzIwMyAzMDUuMDk2IDUzLjI5NjMgMzA1LjExNSA1My4yNzk5QzMwNS4xMzUgNTMuMjYyNSAzMDUuMTQzIDUzLjI1OSAzMDUuMTM5IDUzLjI2MDlMMzA0LjkxNSA1Mi44MTM3QzMwNC44MjkgNTIuODU2OSAzMDQuNzQ2IDUyLjkzNDkgMzA0LjY3MyA1My4wMTM1QzMwNC41OTQgNTMuMDk4MyAzMDQuNTA1IDUzLjIwOSAzMDQuNDA0IDUzLjM0MjZMMzA0LjgwNCA1My42NDI2Wk0zMDUuMTU2IDUzLjI1MTZDMzA1LjIwMiA1My4yMjQgMzA1LjMyNyA1My4xODk3IDMwNS41OCA1My4xODk3VjUyLjY4OTdDMzA1LjMxMyA1Mi42ODk3IDMwNS4wNjkgNTIuNzIwNSAzMDQuODk5IDUyLjgyMjlMMzA1LjE1NiA1My4yNTE2Wk0zMDUuNTggNTMuMTg5N0gzMDcuMTc0VjUyLjY4OTdIMzA1LjU4VjUzLjE4OTdaTTMwNy4xNzQgNTMuMTg5N0MzMDcuMzIgNTMuMTg5NyAzMDcuNDIzIDUzLjIyOSAzMDcuNTAxIDUzLjI5NDRMMzA3LjgyMiA1Mi45MTAzQzMwNy42NCA1Mi43NTg4IDMwNy40MTggNTIuNjg5NyAzMDcuMTc0IDUyLjY4OTdWNTMuMTg5N1pNMzA3LjUwMSA1My4yOTQ0QzMwNy41NjUgNTMuMzQ3NyAzMDcuNjA3IDUzLjQyNDEgMzA3LjYwNyA1My41NTc2SDMwOC4xMDdDMzA4LjEwNyA1My4zMDA5IDMwOC4wMTggNTMuMDczNyAzMDcuODIyIDUyLjkxMDNMMzA3LjUwMSA1My4yOTQ0Wk0zMDcuNjA3IDUzLjU1NzZDMzA3LjYwNyA1My45MzY5IDMwNy4zNTkgNTQuNDUxMyAzMDYuNzYgNTUuMTEzN0wzMDcuMTMyIDU1LjQ0ODlDMzA3Ljc0NyA1NC43NjcgMzA4LjEwNyA1NC4xMzIzIDMwOC4xMDcgNTMuNTU3NkgzMDcuNjA3Wk0zMDYuNzU3IDU1LjExNzFDMzA2LjIwMiA1NS43NTUxIDMwNS40IDU2LjMyMTcgMzA0LjMzNyA1Ni44MTAzTDMwNC41NDYgNTcuMjY0NkMzMDUuNjUyIDU2Ljc1NTkgMzA2LjUxOSA1Ni4xNTE3IDMwNy4xMzUgNTUuNDQ1NUwzMDYuNzU3IDU1LjExNzFaTTMwNC4zMzkgNTYuODA5NEMzMDMuMzE1IDU3LjI2OTQgMzAyLjEyNiA1Ny41MDMgMzAwLjc2NyA1Ny41MDNWNTguMDAzQzMwMi4xODMgNTguMDAzIDMwMy40NDQgNTcuNzU5NSAzMDQuNTQ0IDU3LjI2NTVMMzA0LjMzOSA1Ni44MDk0Wk0zMDUuNDcyIDQ3LjczNjJWNDcuNjM4NkgzMDQuOTcyVjQ3LjczNjJIMzA1LjQ3MlpNMzA1LjQ3MiA0Ny42Mzg2QzMwNS40NzIgNDYuMDk0NiAzMDUuMDQ2IDQ0LjgxNzUgMzA0LjE3NCA0My44MzA2TDMwMy43OTkgNDQuMTYxN0MzMDQuNTc1IDQ1LjAzOTUgMzA0Ljk3MiA0Ni4xOTA2IDMwNC45NzIgNDcuNjM4NkgzMDUuNDcyWk0zMDQuMTc4IDQzLjgzNTNDMzAzLjMyMyA0Mi44MTkgMzAyLjE2NiA0Mi4zMTUyIDMwMC43MzQgNDIuMzE1MlY0Mi44MTUyQzMwMi4wMzQgNDIuODE1MiAzMDMuMDQ1IDQzLjI2NTQgMzAzLjc5NSA0NC4xNTcxTDMwNC4xNzggNDMuODM1M1pNMzAwLjczNCA0Mi4zMTUyQzI5OS4zMDMgNDIuMzE1MiAyOTguMTQ1IDQyLjgxOSAyOTcuMjkxIDQzLjgzNTNMMjk3LjY3MyA0NC4xNTcxQzI5OC40MjMgNDMuMjY1NCAyOTkuNDM0IDQyLjgxNTIgMzAwLjczNCA0Mi44MTUyVjQyLjMxNTJaTTI5Ny4yOSA0My44MzU3QzI5Ni40NjQgNDQuODIyNiAyOTYuMDYxIDQ2LjA5NzkgMjk2LjA2MSA0Ny42Mzg2SDI5Ni41NjFDMjk2LjU2MSA0Ni4xODczIDI5Ni45MzkgNDUuMDM0MyAyOTcuNjc0IDQ0LjE1NjdMMjk3LjI5IDQzLjgzNTdaTTI5Ni4wNjEgNDcuNjM4NlY0Ny43MzYySDI5Ni41NjFWNDcuNjM4NkgyOTYuMDYxWk0yOTYuMzExIDQ3Ljk4NjJIMzA1LjIyMlY0Ny40ODYySDI5Ni4zMTFWNDcuOTg2MloiLz4mI3hhOzxwYXRoIGZpbGw9IiM1MTUwNEYiIGQ9Ik0xODkuMjY3IDEzMy44MDhDMTg4LjgyNiAxMzMuODA4IDE4OC40NDEgMTMzLjY0MiAxODguMTEgMTMzLjMxMkMxODcuNzggMTMyLjk4MSAxODcuNjE0IDEzMi41OTYgMTg3LjYxNCAxMzIuMTU1QzE4Ny42MTQgMTMxLjcxNCAxODcuNjQyIDEzMS40MTIgMTg3LjY5NyAxMzEuMjQ2TDIwOC4xODggNzcuNzg5QzIwOC42MjggNzYuNTc3MiAyMDkuNTEgNzUuOTcxMyAyMTAuODMyIDc1Ljk3MTNIMjE2LjQ1QzIxNy43NzIgNzUuOTcxMyAyMTguNjUzIDc2LjU3NzIgMjE5LjA5NCA3Ny43ODlMMjM5LjUwMiAxMzEuMjQ2TDIzOS42NjcgMTMyLjE1NUMyMzkuNjY3IDEzMi41OTYgMjM5LjUwMiAxMzIuOTgxIDIzOS4xNzEgMTMzLjMxMkMyMzguODQxIDEzMy42NDIgMjM4LjQ1NSAxMzMuODA4IDIzOC4wMTUgMTMzLjgwOEgyMzMuODAxQzIzMy4xOTUgMTMzLjgwOCAyMzIuNzI3IDEzMy42NyAyMzIuMzk2IDEzMy4zOTVDMjMyLjA2NiAxMzMuMDY0IDIzMS44NDUgMTMyLjczNCAyMzEuNzM1IDEzMi40MDNMMjI3LjE5MSAxMjAuNjcxSDIwMC4wOTFMMTk1LjU0NiAxMzIuNDAzQzE5NS40MzYgMTMyLjczNCAxOTUuMTg4IDEzMy4wNjQgMTk0LjgwMyAxMzMuMzk1QzE5NC40NzIgMTMzLjY3IDE5NC4wMzEgMTMzLjgwOCAxOTMuNDgxIDEzMy44MDhIMTg5LjI2N1pNMjI0Ljc5NSAxMTMuNTY1TDIxMy42NDEgODQuMjMzNkwyMDIuNDg3IDExMy41NjVIMjI0Ljc5NVpNMjQ4LjY2NyA4Mi44MjlDMjQ4LjExNiA4Mi44MjkgMjQ3LjY0OCA4Mi42NjM4IDI0Ny4yNjIgODIuMzMzM0MyNDYuOTMxIDgxLjk0NzcgMjQ2Ljc2NiA4MS40Nzk1IDI0Ni43NjYgODAuOTI4N1Y3Ni40NjdDMjQ2Ljc2NiA3NS45MTYyIDI0Ni45MzEgNzUuNDQ4IDI0Ny4yNjIgNzUuMDYyNEMyNDcuNjQ4IDc0LjY3NjkgMjQ4LjExNiA3NC40ODQxIDI0OC42NjcgNzQuNDg0MUgyNTMuODcyQzI1NC40MjMgNzQuNDg0MSAyNTQuODkxIDc0LjY3NjkgMjU1LjI3NiA3NS4wNjI0QzI1NS42NjIgNzUuNDQ4IDI1NS44NTUgNzUuOTE2MiAyNTUuODU1IDc2LjQ2N1Y4MC45Mjg3QzI1NS44NTUgODEuNDc5NSAyNTUuNjYyIDgxLjk0NzcgMjU1LjI3NiA4Mi4zMzMzQzI1NC44OTEgODIuNjYzOCAyNTQuNDIzIDgyLjgyOSAyNTMuODcyIDgyLjgyOUgyNDguNjY3Wk0yNDkuMzI4IDEzMy44MDhDMjQ4Ljc3NyAxMzMuODA4IDI0OC4zMDkgMTMzLjY0MiAyNDcuOTIzIDEzMy4zMTJDMjQ3LjU5MiAxMzIuOTI2IDI0Ny40MjcgMTMyLjQ1OCAyNDcuNDI3IDEzMS45MDdWOTIuNzQzOEMyNDcuNDI3IDkyLjE5MyAyNDcuNTkyIDkxLjc1MjMgMjQ3LjkyMyA5MS40MjE5QzI0OC4zMDkgOTEuMDM2MyAyNDguNzc3IDkwLjg0MzUgMjQ5LjMyOCA5MC44NDM1SDI1My4yOTNDMjUzLjg0NCA5MC44NDM1IDI1NC4yODUgOTEuMDM2MyAyNTQuNjE1IDkxLjQyMTlDMjU1LjAwMSA5MS43NTIzIDI1NS4xOTQgOTIuMTkzIDI1NS4xOTQgOTIuNzQzOFYxMzEuOTA3QzI1NS4xOTQgMTMyLjQ1OCAyNTUuMDAxIDEzMi45MjYgMjU0LjYxNSAxMzMuMzEyQzI1NC4yODUgMTMzLjY0MiAyNTMuODQ0IDEzMy44MDggMjUzLjI5MyAxMzMuODA4SDI0OS4zMjhaTTI2OS4zMzggMTMzLjgwOEMyNjguNzg3IDEzMy44MDggMjY4LjMxOSAxMzMuNjQyIDI2Ny45MzMgMTMzLjMxMkMyNjcuNjAzIDEzMi45MjYgMjY3LjQzOCAxMzIuNDU4IDI2Ny40MzggMTMxLjkwN1Y5Mi44MjY1QzI2Ny40MzggOTIuMjc1NiAyNjcuNjAzIDkxLjgwNzQgMjY3LjkzMyA5MS40MjE5QzI2OC4zMTkgOTEuMDM2MyAyNjguNzg3IDkwLjg0MzUgMjY5LjMzOCA5MC44NDM1SDI3My4xMzlDMjczLjY4OSA5MC44NDM1IDI3NC4xNTggOTEuMDM2MyAyNzQuNTQzIDkxLjQyMTlDMjc0LjkyOSA5MS44MDc0IDI3NS4xMjIgOTIuMjc1NiAyNzUuMTIyIDkyLjgyNjVWOTYuNDYxOUMyNzcuMzggOTIuNzE2MyAyODEuMjM2IDkwLjg0MzUgMjg2LjY4OSA5MC44NDM1SDI4OS45MTFDMjkwLjQ2MiA5MC44NDM1IDI5MC45MDMgOTEuMDM2MyAyOTEuMjMzIDkxLjQyMTlDMjkxLjYxOSA5MS43NTIzIDI5MS44MTEgOTIuMTkzIDI5MS44MTEgOTIuNzQzOFY5Ni4xMzE0QzI5MS44MTEgOTYuNjgyMiAyOTEuNjE5IDk3LjEyMjkgMjkxLjIzMyA5Ny40NTM0QzI5MC45MDMgOTcuNzgzOSAyOTAuNDYyIDk3Ljk0OTEgMjg5LjkxMSA5Ny45NDkxSDI4NC45NTRDMjgxLjk3OSA5Ny45NDkxIDI3OS42MzggOTguODMwNCAyNzcuOTMxIDEwMC41OTNDMjc2LjIyMyAxMDIuMzAxIDI3NS4zNjkgMTA0LjY0MiAyNzUuMzY5IDEwNy42MTZWMTMxLjkwN0MyNzUuMzY5IDEzMi40NTggMjc1LjE3NyAxMzIuOTI2IDI3NC43OTEgMTMzLjMxMkMyNzQuNDA1IDEzMy42NDIgMjczLjkzNyAxMzMuODA4IDI3My4zODYgMTMzLjgwOEgyNjkuMzM4Wk0zMDUuMDIxIDEzMy44MDhDMzA0LjQ3MSAxMzMuODA4IDMwNC4wMDIgMTMzLjY0MiAzMDMuNjE3IDEzMy4zMTJDMzAzLjI4NiAxMzIuOTI2IDMwMy4xMjEgMTMyLjQ1OCAzMDMuMTIxIDEzMS45MDdWOTcuNDUzNEgyOTYuMDk4QzI5NS41NDcgOTcuNDUzNCAyOTUuMDc5IDk3LjI4ODEgMjk0LjY5NCA5Ni45NTc2QzI5NC4zNjMgOTYuNTcyIDI5NC4xOTggOTYuMTAzOCAyOTQuMTk4IDk1LjU1M1Y5Mi43NDM4QzI5NC4xOTggOTIuMTkzIDI5NC4zNjMgOTEuNzUyMyAyOTQuNjk0IDkxLjQyMTlDMjk1LjA3OSA5MS4wMzYzIDI5NS41NDcgOTAuODQzNSAyOTYuMDk4IDkwLjg0MzVIMzAzLjEyMVY4Ni43MTIzQzMwMy4xMjEgNzcuMzQ4NCAzMDcuODU4IDcyLjY2NjQgMzE3LjMzMiA3Mi42NjY0SDMyMS45NTlDMzIyLjUxIDcyLjY2NjQgMzIyLjk1MSA3Mi44NTkyIDMyMy4yODEgNzMuMjQ0N0MzMjMuNjY3IDczLjU3NTIgMzIzLjg2IDc0LjAxNTkgMzIzLjg2IDc0LjU2NjdWNzcuMzc1OUMzMjMuODYgNzcuOTI2NyAzMjMuNjY3IDc4LjM5NDkgMzIzLjI4MSA3OC43ODA1QzMyMi45NTEgNzkuMTExIDMyMi41MSA3OS4yNzYyIDMyMS45NTkgNzkuMjc2MkgzMTcuNDk4QzMxNS4wMTkgNzkuMjc2MiAzMTMuMjg0IDc5LjkzNzIgMzEyLjI5MiA4MS4yNTkyQzMxMS4zMDEgODIuNTI2MSAzMTAuODA1IDg0LjQ4MTUgMzEwLjgwNSA4Ny4xMjU0VjkwLjg0MzVIMzI4LjQ4NlY3NC41NjY3QzMyOC40ODYgNzQuMDE1OSAzMjguNjUyIDczLjU3NTIgMzI4Ljk4MiA3My4yNDQ3QzMyOS4zNjggNzIuODU5MiAzMjkuODM2IDcyLjY2NjQgMzMwLjM4NyA3Mi42NjY0SDMzNC4xODdDMzM0LjczOCA3Mi42NjY0IDMzNS4xNzkgNzIuODU5MiAzMzUuNTA5IDczLjI0NDdDMzM1Ljg5NSA3My41NzUyIDMzNi4wODggNzQuMDE1OSAzMzYuMDg4IDc0LjU2NjdWMTMxLjkwN0MzMzYuMDg4IDEzMi40NTggMzM1Ljg5NSAxMzIuOTI2IDMzNS41MDkgMTMzLjMxMkMzMzUuMTc5IDEzMy42NDIgMzM0LjczOCAxMzMuODA4IDMzNC4xODcgMTMzLjgwOEgzMzAuMzg3QzMyOS44MzYgMTMzLjgwOCAzMjkuMzY4IDEzMy42NDIgMzI4Ljk4MiAxMzMuMzEyQzMyOC42NTIgMTMyLjkyNiAzMjguNDg2IDEzMi40NTggMzI4LjQ4NiAxMzEuOTA3Vjk3LjQ1MzRIMzEwLjgwNVYxMzEuOTA3QzMxMC44MDUgMTMyLjQ1OCAzMTAuNjEyIDEzMi45MjYgMzEwLjIyNyAxMzMuMzEyQzMwOS44OTYgMTMzLjY0MiAzMDkuNDU2IDEzMy44MDggMzA4LjkwNSAxMzMuODA4SDMwNS4wMjFaTTM2NS45NjUgMTM0LjYzNEMzNTkuOTA2IDEzNC42MzQgMzU1LjE5NyAxMzIuOTI2IDM1MS44MzcgMTI5LjUxMUMzNDguNTMyIDEyNi4wOTYgMzQ2Ljc2OSAxMjEuNTUyIDM0Ni41NDkgMTE1Ljg3OEwzNDYuNDY2IDExMi4zMjZMMzQ2LjU0OSAxMDguNzczQzM0Ni43NjkgMTAzLjE1NCAzNDguNTU5IDk4LjYzNzYgMzUxLjkxOSA5NS4yMjI1QzM1NS4yNzkgOTEuNzUyMyAzNTkuOTYxIDkwLjAxNzMgMzY1Ljk2NSA5MC4wMTczQzM3MS45NjkgOTAuMDE3MyAzNzYuNjUxIDkxLjc1MjMgMzgwLjAxMSA5NS4yMjI1QzM4My4zNzEgOTguNjM3NiAzODUuMTYxIDEwMy4xNTQgMzg1LjM4MiAxMDguNzczQzM4NS40MzcgMTA5LjM3OSAzODUuNDY0IDExMC41NjMgMzg1LjQ2NCAxMTIuMzI2QzM4NS40NjQgMTE0LjA4OCAzODUuNDM3IDExNS4yNzIgMzg1LjM4MiAxMTUuODc4QzM4NS4xNjEgMTIxLjU1MiAzODMuMzcxIDEyNi4wOTYgMzgwLjAxMSAxMjkuNTExQzM3Ni43MDYgMTMyLjkyNiAzNzIuMDI0IDEzNC42MzQgMzY1Ljk2NSAxMzQuNjM0Wk0zNjUuOTY1IDEyOC4yNzJDMzY5LjQzNSAxMjguMjcyIDM3Mi4xNjIgMTI3LjE3IDM3NC4xNDUgMTI0Ljk2N0MzNzYuMTgzIDEyMi43NjQgMzc3LjI4NSAxMTkuNTk2IDM3Ny40NSAxMTUuNDY1QzM3Ny41MDUgMTE0LjkxNCAzNzcuNTMyIDExMy44NjggMzc3LjUzMiAxMTIuMzI2QzM3Ny41MzIgMTEwLjc4MyAzNzcuNTA1IDEwOS43MzcgMzc3LjQ1IDEwOS4xODZDMzc3LjI4NSAxMDUuMDU1IDM3Ni4xODMgMTAxLjg4NyAzNzQuMTQ1IDk5LjY4NDJDMzcyLjE2MiA5Ny40ODA5IDM2OS40MzUgOTYuMzc5MyAzNjUuOTY1IDk2LjM3OTNDMzYyLjQ5NSA5Ni4zNzkzIDM1OS43NDEgOTcuNDgwOSAzNTcuNzAzIDk5LjY4NDJDMzU1LjY2NSAxMDEuODg3IDM1NC41OTEgMTA1LjA1NSAzNTQuNDgxIDEwOS4xODZMMzU0LjM5OCAxMTIuMzI2TDM1NC40ODEgMTE1LjQ2NUMzNTQuNTkxIDExOS41OTYgMzU1LjY2NSAxMjIuNzY0IDM1Ny43MDMgMTI0Ljk2N0MzNTkuNzQxIDEyNy4xNyAzNjIuNDk1IDEyOC4yNzIgMzY1Ljk2NSAxMjguMjcyWk00MDYuMDgzIDEzMy44MDhDNDA1LjM2NyAxMzMuODA4IDQwNC44MTYgMTMzLjY0MiA0MDQuNDMgMTMzLjMxMkM0MDQuMDQ1IDEzMi45ODEgNDAzLjcxNCAxMzIuNDU4IDQwMy40MzkgMTMxLjc0MkwzOTEuNzA2IDkzLjQwNDhMMzkxLjU0MSA5Mi41Nzg2QzM5MS41NDEgOTIuMDgyOCAzOTEuNzA2IDkxLjY2OTcgMzkyLjAzNyA5MS4zMzkyQzM5Mi40MjIgOTEuMDA4NyAzOTIuODM1IDkwLjg0MzUgMzkzLjI3NiA5MC44NDM1SDM5Ni45MTFDMzk3LjQ2MiA5MC44NDM1IDM5Ny45MDMgOTEuMDA4NyAzOTguMjMzIDkxLjMzOTJDMzk4LjYxOSA5MS42MTQ2IDM5OC44NjcgOTEuOTE3NiAzOTguOTc3IDkyLjI0ODFMNDA4LjE0OCAxMjMuMzk3TDQxNy45OCA5Mi41Nzg2QzQxOC4wOTEgOTIuMTM3OSA0MTguMzM4IDkxLjc1MjMgNDE4LjcyNCA5MS40MjE5QzQxOS4xMSA5MS4wMzYzIDQxOS42MzMgOTAuODQzNSA0MjAuMjk0IDkwLjg0MzVINDIzLjEwM0M0MjMuNzY0IDkwLjg0MzUgNDI0LjI4NyA5MS4wMzYzIDQyNC42NzMgOTEuNDIxOUM0MjUuMDU5IDkxLjc1MjMgNDI1LjMwNiA5Mi4xMzc5IDQyNS40MTcgOTIuNTc4Nkw0MzUuMjQ5IDEyMy4zOTdMNDQ0LjQyIDkyLjI0ODFDNDQ0LjQ3NSA5MS45NzI3IDQ0NC42NjggOTEuNjY5NyA0NDQuOTk4IDkxLjMzOTJDNDQ1LjM4NCA5MS4wMDg3IDQ0NS44NTIgOTAuODQzNSA0NDYuNDAzIDkwLjg0MzVINDUwLjEyMUM0NTAuNTYyIDkwLjg0MzUgNDUwLjk0NyA5MS4wMDg3IDQ1MS4yNzggOTEuMzM5MkM0NTEuNjA4IDkxLjY2OTcgNDUxLjc3MyA5Mi4wODI4IDQ1MS43NzMgOTIuNTc4Nkw0NTEuNjA4IDkzLjQwNDhMNDM5Ljk1OCAxMzEuNzQyQzQzOS42ODMgMTMyLjQ1OCA0MzkuMzUyIDEzMi45ODEgNDM4Ljk2NyAxMzMuMzEyQzQzOC41ODEgMTMzLjY0MiA0MzguMDAzIDEzMy44MDggNDM3LjIzMiAxMzMuODA4SDQzNC4wMDlDNDMyLjUyMiAxMzMuODA4IDQzMS42MTMgMTMzLjExOSA0MzEuMjgzIDEzMS43NDJMNDIxLjY5OCAxMDIuMTYzTDQxMi4xMTQgMTMxLjc0MkM0MTEuNjc0IDEzMy4xMTkgNDEwLjczNyAxMzMuODA4IDQwOS4zMDUgMTMzLjgwOEg0MDYuMDgzWiIvPiYjeGE7PC9nPiYjeGE7PGRlZnM+JiN4YTs8Y2xpcFBhdGggaWQ9ImNsaXAwIj4mI3hhOzxyZWN0IGZpbGw9IndoaXRlIiBoZWlnaHQ9IjE3NSIgd2lkdGg9IjQ1MyIvPiYjeGE7PC9jbGlwUGF0aD4mI3hhOzwvZGVmcz4mI3hhOzwvc3ZnPg==;" vertex="1" parent="1">
          <mxGeometry x="60.999999999999986" y="769" width="129.43" height="50" as="geometry" />
        </mxCell>
        <mxCell id="BuxqmLbNOe8SiWox82qU-4" value="" style="image;sketch=0;aspect=fixed;html=1;points=[];align=center;fontSize=12;image=img/lib/mscae/Docker.svg;" vertex="1" parent="1">
          <mxGeometry x="-12.170000000000002" y="690" width="96.34" height="79" as="geometry" />
        </mxCell>
        <mxCell id="BuxqmLbNOe8SiWox82qU-7" value="" style="endArrow=classic;html=1;rounded=0;exitX=0.5;exitY=0;exitDx=0;exitDy=0;endFill=1;dashed=1;" edge="1" parent="1" source="BuxqmLbNOe8SiWox82qU-2">
          <mxGeometry width="50" height="50" relative="1" as="geometry">
            <mxPoint x="180" y="580" as="sourcePoint" />
            <mxPoint x="170" y="430" as="targetPoint" />
          </mxGeometry>
        </mxCell>
        <mxCell id="BuxqmLbNOe8SiWox82qU-8" value="定時実行" style="text;html=1;align=center;verticalAlign=middle;resizable=0;points=[];autosize=1;strokeColor=none;fillColor=default;" vertex="1" parent="1">
          <mxGeometry x="100" y="688" width="70" height="30" as="geometry" />
        </mxCell>
      </root>
    </mxGraphModel>
  </diagram>
</mxfile>
